/* XPM */
static char *_b6edba60ea04fd6e9bd82b37a7a274dZaheMbfmxniDGmPO[] = {
/* columns rows colors chars-per-pixel */
"64 64 234 2 ",
"   c #1C1C27",
".  c #2E1B24",
"X  c #321926",
"o  c #361C28",
"O  c #3A1E29",
"+  c #1D242B",
"@  c #28242A",
"#  c #242B2D",
"$  c #2B2C2D",
"%  c #3C222A",
"&  c #322B2D",
"*  c #3B292E",
"=  c #2D332E",
"-  c #34332D",
";  c #3B352D",
":  c #273331",
">  c #3C3531",
",  c #383933",
"<  c #451C29",
"1  c #43242D",
"2  c #4A262E",
"3  c #442A2E",
"4  c #4A292E",
"5  c #54212E",
"6  c #43362E",
"7  c #4B2630",
"8  c #452A32",
"9  c #4C2C32",
"0  c #522D33",
"q  c #5A2B36",
"w  c #5B2E34",
"e  c #463231",
"r  c #4C3333",
"t  c #443B33",
"y  c #4B3B34",
"u  c #493E39",
"i  c #533334",
"p  c #5B3435",
"a  c #523A36",
"s  c #5C3A36",
"d  c #523539",
"f  c #5D3439",
"g  c #543A3A",
"h  c #5C3C3A",
"j  c #622F34",
"k  c #643437",
"l  c #683737",
"z  c #633639",
"x  c #643B3B",
"c  c #6B3D3C",
"v  c #723E3B",
"b  c #783D39",
"n  c #3A4E3B",
"m  c #4B4233",
"M  c #484637",
"N  c #544436",
"B  c #564A35",
"V  c #54453C",
"C  c #5D423C",
"Z  c #544B3B",
"A  c #5A4B3D",
"S  c #465537",
"D  c #565336",
"F  c #5C523D",
"G  c #64423B",
"H  c #6C423D",
"J  c #644B3D",
"K  c #6A4A3D",
"L  c #74423D",
"P  c #78473B",
"I  c #66573C",
"U  c #5A6A36",
"Y  c #576839",
"T  c #53693D",
"R  c #6A683F",
"E  c #69733D",
"W  c #77773F",
"Q  c #653D41",
"!  c #584841",
"~  c #5B4D42",
"^  c #4A5646",
"/  c #5D5243",
"(  c #5E5748",
")  c #6C4441",
"_  c #644C42",
"`  c #6B4B43",
"'  c #744542",
"]  c #794642",
"[  c #744B43",
"{  c #7B4B44",
"}  c #7B4E48",
"|  c #635243",
" . c #6C5445",
".. c #6B5A44",
"X. c #6D5549",
"o. c #635B48",
"O. c #695C4B",
"+. c #735345",
"@. c #7C5245",
"#. c #735C45",
"$. c #735649",
"%. c #7A544A",
"&. c #745C4B",
"*. c #7C5B4D",
"=. c #7D5D50",
"-. c #4C6341",
";. c #586742",
":. c #5B794B",
">. c #556850",
",. c #6B6547",
"<. c #736348",
"1. c #74634E",
"2. c #7C624E",
"3. c #797842",
"4. c #776752",
"5. c #7B6351",
"6. c #7D6B54",
"7. c #82493C",
"8. c #824D46",
"9. c #835245",
"0. c #83534A",
"q. c #89564B",
"w. c #845B4B",
"e. c #8B5B4C",
"r. c #915F4C",
"t. c #805F51",
"y. c #905F51",
"u. c #84634D",
"i. c #8D624D",
"p. c #8B6B4F",
"a. c #93634F",
"s. c #97694E",
"d. c #826352",
"f. c #856B54",
"g. c #8A6855",
"h. c #8B6C55",
"j. c #8B6D59",
"k. c #946452",
"l. c #996653",
"z. c #946C54",
"x. c #9B6C53",
"c. c #82735B",
"v. c #8C745A",
"b. c #8C785A",
"n. c #9B7156",
"m. c #92745B",
"M. c #99765A",
"N. c #947A5D",
"B. c #A06F53",
"V. c #A4795C",
"C. c #8B7A62",
"Z. c #967D61",
"A. c #9A7D62",
"S. c #6F863F",
"D. c #72873E",
"F. c #74883F",
"G. c #6C8443",
"H. c #788A43",
"J. c #6C9052",
"K. c #699258",
"L. c #749A57",
"P. c #7AA35B",
"I. c #7EAB5F",
"U. c #618263",
"Y. c #6E966F",
"T. c #75976D",
"R. c #739A6C",
"E. c #7B9A6E",
"W. c #6C9472",
"Q. c #709571",
"!. c #75A365",
"~. c #78A762",
"^. c #7AA862",
"/. c #73A068",
"(. c #8B9046",
"). c #9A9B4D",
"_. c #8BA74B",
"`. c #91A549",
"'. c #91AE4C",
"]. c #96B44D",
"[. c #99B74F",
"{. c #9BB94E",
"}. c #84A756",
"|. c #8DAF56",
" X c #84A65E",
".X c #83AC5C",
"XX c #8CAE5A",
"oX c #96AE5B",
"OX c #8DB156",
"+X c #8AB058",
"@X c #94B552",
"#X c #9AB751",
"$X c #9EB850",
"%X c #98B15C",
"&X c #A0B94F",
"*X c #AAAB57",
"=X c #B3AE56",
"-X c #A8B654",
";X c #A3B951",
":X c #ACB954",
">X c #A2B25E",
",X c #ACB55C",
"<X c #B6B257",
"1X c #B4BA57",
"2X c #B4B55D",
"3X c #B6B65D",
"4X c #B8B75C",
"5X c #B6B958",
"6X c #BABA59",
"7X c #BDB95B",
"8X c #BFBA5B",
"9X c #948667",
"0X c #9C8364",
"qX c #9C8A65",
"wX c #9D8C6A",
"eX c #829E6C",
"rX c #9E906F",
"tX c #A48766",
"yX c #A28B66",
"uX c #A48D6B",
"iX c #A3906D",
"pX c #AA956B",
"aX c #B1976D",
"sX c #A99673",
"dX c #B29D75",
"fX c #85A366",
"gX c #80AA62",
"hX c #83AA62",
"jX c #8BAC60",
"kX c #8BA26A",
"lX c #92A666",
"zX c #A7AF62",
"xX c #A8AF61",
"cX c #B5A177",
/* pixels */
":X{.{.{.{.;X1X1X1X1X:X{.{.{.{.{.{.{.{.{.{.{.{.{.{.{.{.{.{.{.{.{.{.{.{.:X6X7X7X7X7X7X6X,X,X2X6X6X;X;X;X;X{.{.{.{.{.{.{.{.{.{.{.{.",
"{.{.{.{.{.{.{.{.{.{.{.{.{.{.{.{.{.{.{.{.{.{.{.{.{.{.{.{.{.{.{.{.{.#X#X,X,X,X,X,X,X,X>XhXhXjX,X6X6X6X6X1X;X;X;X;X#X@X@X@X{.{.{.{.",
"@X{.{.{.{.{.{.{.{.{.{.{.{.{.{.{.{.{.{.{.{.{.{.{.{.{.{.{.{.{.{.{.@XOXI.hXhXhXXX.XhXhX^.^.^.^.jX,X,X,X,X,X,X,X,X,X%XhX^..X@X@X@X@X",
".X@X@X@X@X@X@X@X@X@X{.{.{.{.{.{.{.{.{.{.{.{.{.{.{.{.{.{.{.[.@X@XOXI.^.^..X.X@X@X.X^.^.^.^.^.^.^.hXhXhXhXhXhXhXhX^.^.^.^.^.^.^.^.",
"^.^.^.^.^.I..X.X.X+X{.{.{.{.{.{.{.{.{.{.{.{.{.{.{.{.{.{.{.@X.X.X.X.X.X.X@X[.{.{.@X.X.XI.^.^.^.^.^.^.^.^.^.^.^.^.^.^.^.^.^.^.^.^.",
".X.X.X.X.X.X@X@X@X[.{.{.{.{.{.{.{.{.{.{.{.{.{.{.{.{.{.{.{.{.@X@X@X@X@X[.{.{.{.{.{.[.@X@X.X^.^.^..X.X.XI.^.^.^.^.^.^.^.^.^.^.^.^.",
"@X@X@X@X@X[.{.{.{.{.{.{.{.{.{.{.{.{.{.@XOX|.|.|.@X[.{.{.@XOX|.|.|.@X[.{.{.{.{.{.;X;X;X{.@X^.^..X@X@X@X@X.X^..X.XI.^.^..X.X.X.X.X",
"{.{.{.{.{.{.{.{.{.{.{.{.{.{.{.{.{.@X|. XR.W.W.W.R.|.[.@X XR.W.W.W.R.|.[.{.{.{.:X6X6X1X;X@X^..X@X{.{.{.{.@X+X@X@X@X.X.X@X@X#X#X#X",
";X;X{.{.{.{.{.{.{.{.{.{.{.{.{.{.@X XR.Q.E.E.E.W.W.R.XX XY.W.E.E.E.E.E.|.[.{.:X6X7X7X7X5X;XXX.X@X{.{.{.{.{.{.{.{.{.[.[.{.{.;X;X;X",
"6X1X{.{.{.{.@XOX|.|.|.@X[.@XOX|. XY.W.kX2X2XxXeXE.W.W.W.Q.kX2X2X2XzXeXfX@X;X6X7X7X7X7X7X6X,XXX+X{.{.{.{.{.{.{.{.;X;X;X;X:X6X7X6X",
"6X:X{.{.{.@X XR.W.W.W.R.XX XR.W.W.W.E.,X7X7X7X2XzXeXE.Q.kX2X7X7X7X7X2X>XlX-X7X7X7X7X7X7X7X7X1X#X{.{.{.{.{.;X;X:X6X6X6X6X7X7X7X7X",
":X#XOX@X@X XY.W.E.E.W.W.W.W.W.E.E.W.E.zX7X7X7X7X7X2XxXlX2X7X7X<X=X<X7X7X4X6X7X7X7X7X7X7X7X7X6X;X;X{.{.{.;X5X6X6X7X7X7X7X7X7X7X5X",
"#X XR.R.hXY.W.kX,XzXE.W.W.W.kX,XzXeXE.kX2X7X7X7X7X7X7X4X7X=X3.D B I (.4X7X7X7X7X7X7X7X7X7X7X7X6X1X{.{.{.;X1X5X5X5X5X5X5X5X1X:X;X",
"|.R.W.E.E.W.E.2X7X7XxXeXE.kX2X7X7X2XxXlX4X7X7X7X7X7X7X7X<XW B | t ..B (.4X7X7X7X6X,X2X7X7X7X7X7X6X;X;X;X{.{.{.{.{.{.{.{.{.{.{.{.",
" XR.kX,XzXeXkX2X7X7X7X2X2X4X7X7X7X7X7X4X7X7X6X,X,X,X2X=XW N $.1.t f.` B (.2X7X4X>XhXjX,X7X7X7X7X7X6X6X1X;X{.{.{.{.{.{.{.{.;X#X@X",
"eXkX2X7X7X2X2X5X5X6X7X7X7X7X7X5X5X5X5X7X7X4X>XhXhXhX X3.N +.w.&.t f.*.` B (.,X>XhX^.^.jX6X7X7X7X7X7X5X1X:X{.{.{.{.{.{.;X:X5X,XkX",
"2X4X7X7X7X6X1X;X{.;X1X7X7X7X1X;X#X@X#X,X,X>XhX^.~.~.K.M ` *.t.1.t f.*.*.V S L.^.^.~.~.jX,X5X5X5X1X:X;X{.{.{.{.{.{.;X:X6X6X7X7X2X",
"7X7X7X7X5X:X;X{.{.{.;X6X7X5X;X#XOXI.^.hXhX^.^.^.~.K.S V &.*.=.1.u f.*.*.X.t -.L.^.^.^..X@X$X{.{.{.{.{.{.{.{.{.{.:X6X6X5X5X6X7X7X",
"7X7X5X:X;X{.{.{.{.{.;X1X5X1X$X@XI.^.^.^.^.^.^.~.K.S | tXj.*.d.1.u f.*.=.A.N.Z T L.^.^.^..X@X{.{.{.{.{.{.{.{.;X:X6X6X1X;X{.;X1X7X",
"1X:X;X{.{.{.{.{.{.{.{.{.;X-X@X+X^.^.^.^.^.^.~.K.n A M.aXM.*.t.5.y j.*.d.tXpXh.M T P.I.^.^..X@X@X{.{.{.{.{.;X1X1X1X:X;X{.{.{.;X1X",
"{.{.{.{.{.{.{.[.@X@X@X@X@XOXI.^.^.^..X.XI.~.K.n t *.m.f.v.d.d.$.e d.*.f.f.v.h.X., Y _..X.X.X.X+X{.{.{.{.{.{.{.{.$X{.{.{.{.{.{.{.",
"{.{.{.{.{.{.{.@X.X.X.X^.^.^.^.^.^..X@X@X@XL.n - C *.v.6.1.g.g.a X ` h.f...v.g.$.a = U '.@X@X[.[.{.{.{.{.{.{.{.#X@X@X@X{.{.{.{.{.",
"{.{.{.{.{.{.{.{.[.@X@X.X.XI.^.^..X@X{.{._.S $ g [ d.A.N._ h.` o X 1 5.d. .tXm.=.` r = U '.{.{.{.{.{.{.{.{.{.@XOXI.^..X@X{.{.{.{.",
"{.{.{.{.{.{.{.{.;X;X{.[.@X@X.X.XXX[.{._.S & 9 ) *.j.m.j.` g % X X X 8 h *.m.m.f.$.c * - U '.{.#X@X@X@X{.{.@XOXI.^.^.^..X[.{.{.{.",
"{.{.{.{.{.{.{.:X6X1X;X{.{.{.#X;X;X;X`.S t J i [ d.g.d. .r o O o X O O % h $.d.g.t.H a J ; U '.OXI.^..X@X@XOXI.^.^.^.^..X@X{.{.{.",
"{.{.{.{.{.;X:X6X7X7X1X;X;X;X:X6X6X<X3.- J h.J ) *.*. .r O 1 0 1 o 2 0 1 % h $.*.*.x +.p.a ; J.I.^.^.^.^.^.^.^.^.^.^.^.I.OX@X@X{.",
"@X@X@X@X;X6X6X7X7X7X7X7X6X6X7X7X7X*XI h %.M.h.C ` ` i O 7 f q 1 % 9 w w 1 % h +.J _ m.z.[ y :.~.~.^.^.^.^.^.^.^.^.^.^.^.^.^..X@X",
"^.I..XOX:X1X6X7X7X7X7X7X7X7X7X7X2XH.t ` *.m.0Xf.X.g % 7 f w p 9 % i p f w 1 % G &.N.A.g.%.G M K.~.~.^.^.^.^.^.^.^.^.^.^.^.^.^.^.",
".X.X@X#X{.&X;X1X7X7X7X7X7X6X5X,XoX;.i [ *.v.A.tXv.r . 1 f x { s 8 H { z w O . C A.tXA.g.%.) y :.^.^.^.^.^.^.^.~.~.~.~.^.^.^.^..X",
"@X[.{.{.;X;X;X:X7X7X7X7X7X1X#XXXL.Z c [ %.j.A.j.C 1 2 7 z e.x.) 9 %.x.@.q 2 2 3 ` m.A.d.%.) h ;.P..X.X.X.X.X^.!.!.!.!.~.~.^..X@X",
"{.{.;X:X6X6X6X7X7X7X7X7X5X;X{.'.E h ) ) %.d.d.h 2 z c c G e.V.` 9 w.V.@.G x c p 4 ` d.d.} ) G V G.}.XX|.@X@X XW.W.W.W./.!..X@X{.",
"{.:X6X6X7X7X7X7X7X7X7X7X:X{.[.F.N K [ ) %.*.G 2 z v L e.u.+.w.s 7 ) w.+.i.9.H c w 4 ` *.[ ) [ G M U.Y.R.XX XR.E.E.E.W.W.Y.^.@X{.",
":X5X5X5X5X5X6X7X7X7X7X6X;X{.'.D G @.X.C C ` 0 0 c L 9.a.n.i.i < 5 < G n.x.r.} c x 2 s ` h _ $.[ d >.T.E.Q.Q.kX2X2XzXE.W.W.R.|.;X",
"1X:X;X{.{.{.;X1X7X7X7X6X;X{.`.M _ u.m.b.c.h 1 0 p s H K K C O < 5 < 1 J K K G s p 2 1 _ v.N.m.*.g ,.*XzXeXkX2X7X7X7XxXeXE.eXlX2X",
"{.{.{.{.{.{.{.;X1X6X7X7X1X-X*XF X.2.m.uXdXX.1 l 9.w.i.n.n.[ s 0 5 p x *.n.z.i.w.{ f 4 c.dXtXh.&.~ 3.<X6X2X7X7X7X7X7X7X2X2X2X4X6X",
"{.;X;X;X{.{.{.{.{.;X1X7X7X6X).F &.2.f.0X9Xg w { k.x.B.V.tXz.+.0 7 s w.M.V.V.n.x.e.L 0 _ uXN.f.*.X.R =X7X7X7X7X7X7X7X7X7X7X7X7X6X",
":X6X6X1X;X{.{.{.{.{.;X1X1X-XW ~ f.Z.b.uX1.0 L { e.n.n.n.n.@.x s x s H i.M.n.n.x.0.] x i b.0XN.Z.2.Z ).7X7X7X7X7X7X7X7X7X7X7X7X7X",
"7X7X7X7X1X{.{.{.;X;X{.{.{.`.U  .N.0X0XpX .w v ' y.n.n.z.+.G { ) ) ' [ G w.z.n.x.q.c c i f.iX0X0Xj.A 3.<X7X7X7X5X6X7X7X7X7X7X7X7X",
"7X7X7X7X5X&X{.:X6X1X;X;X[.D.m &.f.N.tXZ.h f L L q.i.i.[ G { 0.) ) ' 0.[ G @.k.e.0.c c q  .0X0Xv.d.| M ).5X6X1X;X;X1X7X7X7X7X7X7X",
"7X7X7X7X6X:X:X6X7X7X6X1X[.U > &.&.5.v. .1 f H ' ' ' ' p [ 0.0.) Q ) 0.0.H f [ ' ] c c 0 8 5.f.*.&.| - F.;X:X;X{.{.;X7X7X7X7X7X7X",
"5X6X7X7X7X6X6X7X7X7X7X1X-XE / 6.5.1.5.C % f H c c c z f [ 0.} h d Q 0.0.) f x c c x c q 1 X.5.1.5.6.Z F.{.{.{.{.{.;X6X7X7X7X7X5X",
"{.;X1X5X5X5X5X5X5X1X:X$X].E 1.wXiXaXcX6.% 7 9 7 0 0 9 i i g d 8 8 8 d g i i 0 0 0 2 0 1 e qXcXpXiX9Xo.F.{.{.{.{.{.;X1X5X5X1X:X;X",
"{.{.{.{.{.{.{.{.{.{.{.[.|.,.O.9XwXqXyX6.a K <.#._ J  .#.#.#.+.X.X.X.+.#.#.#. .G  .#.#.G g 9XqXqXwXb./ F.{.{.{.{.{.{.{.{.{.{.{.{.",
"{.{.{.{.{.{.{.{.{.#X@XOXP.;.V 4.c.6.c.O.G u.h.h.f.2.u.h.z.M.z.z.z.z.m.M.h.f.u.d.g.z.h.*.C 6.6.6.c.1.m F.{.{.{.{.{.{.{.{.{.{.{.{.",
"{.{.{.{.{.{.{.{.@XOXI.^.P.-.& A 1.O.O.M 3 i d d g d d d g g g g g g g g g d d d g d d r * / O.O.O.u $ D.{.{.{.{.{.{.{.{.{.{.{.{.",
"{.{.{.{.{.{.#X@X+XI.^.~.P.T   $ V / A @ % 9 4 3 i i r p p 9 0 4 0 7 i 9 s i r i r 1 4 2 . ; / / M @ @ D.{.{.{.{.#X@X@X@X{.{.{.{.",
"@X@X{.{.[.@XOXI.^.^.~.^.}.Y + # u | 1.( 9 k k s [ @.[ 9.[ x 9.H P H 9.z 9.{ [ @.L i l w r 1.,.~ > # # G.{.{.{.@XOXI.^..X@X{.{.[.",
"^..X@X{.@X.X.X.X.X.X.X.X'.U : ^ c.1.9X9Xi l l H e.k.0.x.w.[ x.{ [ @.s.) s.r.0.k.9.s c w ! sXb.4.6.n : G.[.{.#XOXI.^.^.^..X@X@XOX",
"^.^..X@X@X@X@X@X@X@X@X[.].U # M wXwXcX9Xr L L H e.k.0.x.i.+.x.{ [ 9.z.[ n.a.w.x.q.s P x ! cXsXwXC., = S.{.[.@XI.^.^.^.^.^.^.^.^.",
"^.^..X.X.X+X{.{.{.{.{.[.].U + , b.sXcXc.9 7.P c q.k.0.x.w.[ x.[ ) @.s.) z.s.w.l.0.s 7.c y rXdXiX1.$ # G.[.[.OX^.^.^..X.XI.^.^.^.",
".X.X@X@X@X[.{.{.{.@XOX|.}.T @ & 1.iX9Xu 1 L P c q.k.0.B.%.[ s.H c P s.) k.x.0.l.0.s P x * o.iXqX/ @ # :.OX+XI.^.^..X@X@X@X.X.X.X",
"@X[.{.{.{.{.{.{.@X XR.W.Y.^ & t o.c.! > 8 v L c q.k.0.x.0.[ i.x x K i.) k.a.0.k.0.p P l * t o.c.F > $ :.^.^.^.^..X@X{.{.{.[.@X@X",
"{.{.{.{.{.{.@X|. XR.E.E.T.^ * B <.| ~ X.9 P P c q.y.} k.w.` e.x f H w.G k.e.0.k.0.p 7.x i &.~ O.,.y & :.^.~.^.^..X@X{.{.{.{.{.{.",
"{.{.{.@XOX|. XR.eXkX2X2X*X,.8 r ! 2.N.2.9 v P c 0.q.{ a.*.G 0.x f c @.C i.q.} q.0.s 7.l a N.v.&.V 9 e G..X~.^.I.OX@X@X@X@X@X@X{.",
"@X@X#XXXR.eXeXkX2X4X7X7X<XR e i r d.yXb.9 l v c { 0.' q.` s } x f H [ a @.9.[ 0.{ z L w g yX0X$.8 a > D.OX^.^.^.^.^.^.^.^.^..X@X",
"XX%X>XkXkX,X2X2X7X7X7X4X*XR , I C v.aXb.9 k v c } 8.H G 6 r { z f c ' 6 y G ' 8.{ z L w h pXpX5.C I , D.@X^.^.^.^.^.jXjXjXjXjXXX",
"5X5X5X,X,X5X5X6X7X6X,X>X X-., ..1.0XcXb.0 k L c { { x r O.J H z f x H I / r H 8.] x L w h uXaXb.<.F , H.OX^.jXjXjXoX2X5X5X6X6X5X",
"1X:X;X{.{.{.{.;X1X,XXX.XP.-.$ t v.uXcX6.0 k ] c ] ] p r 4.I x z d x G <.( r x { ) H P w a qXdXyX1.> = G..X|.,X:X:X1X5X5X5X5X5X5X",
"$X{.{.{.{.{.{.{.{.{.#X[.'.Y $ e A b.Z.t 2 k ] c ' ' p r / N H s i x G Z V i z { H H v w 1 / 9X6.V > = D.[.[.{.{.$X{.{.{.{.{.{.{.",
"{.;X;X;X;X{.{.{.{.{.{.{.].U $ N 6 u V @ 2 k ] x ' ] z H y a [ p i z [ r a c x { H H L w % & ! > y t $ D.{.{.{.{.{.{.{.{.{.{.{.{.",
":X6X6X6X1X;X{.{.{.{.{.{.].U - D ; t 6.! 4 v L x { { x 8.H s [ i i s [ i { { G 9.' k P l 8 O.1.- m B - D.{.{.{.{.{.{.{.{.{.{.{.{.",
"7X7X7X7X7X1X;X;X;X{.{.{.'.U m I 6 O.sXC.q b L z ' [ G 9.P x { i i s { s 9.{ G { ' p 7.l h iXwXA m I m D.{.{.{.{.{.{.{.{.;X;X;X;X",
"7X7X5X5X6X7X6X6X1X;X{.{.'.;.F I Z N.dXC.0 l v k L ] x 9.P i ' i i p H i 9.{ x { c f b j C sXsX6.N I B F.{.{.{.{.{.{.{.;X1X1X6X6X",
"7X1X;X{.;X6X7X7X7X1X;X{.].E I J &.sXcXC.9 l v k L { z 9.P s c 9 i i c s 9.{ x 8.c p b j g sXcX0XI ..D H.{.{.{.{.{.{.{.{.{.;X5X6X"
};
