/* XPM */
static char *_58945df3a1f4138c37597ba9965d4e9fqnhFxLvc1144KY3[] = {
/* columns rows colors chars-per-pixel */
"64 64 46 1 ",
"  c #7FAB5F",
". c #6F976F",
"X c #71986F",
"o c #7E9E6B",
"O c #7B9D6C",
"+ c #679175",
"@ c #6A9472",
"# c #6A9274",
"$ c #749771",
"% c #769870",
"& c #76A466",
"* c #78A764",
"= c #79A863",
"- c #7EAA60",
"; c #73A169",
": c #9BB94E",
"> c #9CB94E",
", c #84AD5C",
"< c #8AAC5A",
"1 c #89AE5E",
"2 c #8EB057",
"3 c #96B751",
"4 c #93B354",
"5 c #95B354",
"6 c #90B455",
"7 c #9CB753",
"8 c #9AB356",
"9 c #9AB654",
"0 c #9FB851",
"q c #A0B950",
"w c #A1B950",
"e c #A6B952",
"r c #ADB75B",
"t c #A9B45E",
"y c #B3BA57",
"u c #B5BA57",
"i c #B2B45F",
"p c #B4B75C",
"a c #B9BA59",
"s c #BFBA5B",
"d c #839E6D",
"f c #83AB62",
"g c #85AB62",
"h c #83A864",
"j c #8FAE60",
"k c #AFB360",
/* pixels */
"y::::qaaaay:::::::::::::::::::::::>esssssssiipsaqqqq:::::::::::q",
"::::::::::::::::::::::::::::::::::9iiiiiiit==fpssssaqqqq0333::::",
"3::::::::::::::::::::::::::::::::6==== -======fiiiiiiiiit==-3333",
"-333333333::::::::::::::::::::336=== ,:3-=======================",
"======   ,:::::::::::::::::::3     ,::::3  -====================",
"     ,:::::::::::::::::::::::::::::::::::::3-===   -============",
"::::::::::::::::::::44444::::44444:::::>qqq:3==,:::3-=  -==    ,",
"::::::::::::::::::4<++++.4::<++++.4:::>essaq3= :::::3,::3 ,:::::",
"qq:::::::::::::::<+#%%$++.4<+#%%%$.4:>essssa7f-3::::::::::::>qqq",
"sa:::::44444::44<+#dssi%$+++#dsssi%O4qssssssspg,:::::::>qqqqesss",
"sy::::<++++.4<++++%sssssi%$#dssssssioessssssssa:::::>qqessssssss",
"y:44:<+#%$++++#%$+$issssssidssssssssssssssssssaqq:::qssssssssssa",
":<+.<+#dsi$++#dsi%$%ssssssssssssssssssssssssssssa:::qaaaaaaaaay:",
"4+#%$+%sssi%%dssssidssssssssssssaaaasssssipsssssaqqq::::::::::::",
"<#dsi%dssssssssssssssssiiipssssy:::qassst=fpsssssssaq:::::::>q04",
"%dsssssaaasssssaaaassst===fpaaa:::::qait===gssssssaay:::::>qesi%",
"ssssssy::qasssy::39iit===== :qy::::336=====gaaaaay::::::>qesssss",
"ssssay::::qssa::6==========,::::::6========-3::::::::::>essaaass",
"ssay::::::qaaa:3==========-3333::6===== -===-3:::::::>qessy::qas",
"ay::::::::::qy36==============-36=====,:3 -==-33:::::qaaay::::qa",
"::::::::333336====  -================ ::::3    ,::::::::::::::::",
":::::::3  -======,::3-==  -======= -= ::::::::::::::::::333:::::",
"::::::::::3  -== ::::3=,::3 -====,:3--3::::::::::::::::6==-3::::",
":::::::>qq:::3  ,::::3,:::::3   ,:::3 ,:::::::::333:::6==== ::::",
"::::::>esaq:::>qqqq::::::::::::::::::::::::::::6==-336===== ::::",
"::::>qesssaqqqesssaqq::::::::3333:::::::::::::6============-333:",
"3333esssssssssssssiir3::33336===-33::3333::::6================-3",
"== 1aaasssssssssst===-36==========-36===-3336===================",
" ,::::qassssssait=  -====================*&&&&================= ",
":::>qqqesssssy3  ,::3   -===============*;+++@&       -&&&&===,:",
":>qessssssssa:::::::33336===========*&&&&+++++.44444::<+++@&& ::",
">essssssssssy::::::3 -=============*;++@;++++++++++.4<#%%$++@-::",
"esaaaaassssa:::::::::3 -==========*;+++#%%%$+++#%%%$+#dssi$++.5q",
"ay::::qasssaq>qq:::::::3   -======&++#%dsssi$+#dsssi%dssssi%%%ds",
":::::::qaassaesaq::::::::::3====*&;+#dssssssk#dssssssssssssssssa",
">qqq:::::qasssaauq:::::::::3fgggh%$#dsssssssidsssssssssssssssssa",
"essaq:::::qaay::qy:::::::::>esaassidsssssssssssssssssssssssssssa",
"ssssa::>qq:::::::::::::::::qsy:qassssssssaaasssssaassssaasssssss",
"ssssa:>esaqq:::::::::::::::qy:::qaaaasssy::qassay:qaasy:qassssss",
"ssssaqessssaqqqqqqqqq:::::::::::::::qasa::::qsy:::::qy:::qssssss",
"aasssssssssaaaaaaaaay::::::::::::::::qay::::qa:::::::::::qsssssa",
":qaaaaaaaay:::333333::::::::::::::::::::::::qy:::::::::::qaaaay:",
"::::::::::::36=====-3:3333:::::>qqq:::::::::::::::::::::::::::::",
"::::::::::36========-6===-3::>qessaq::::::::::333:::::::::::::::",
":::::::::6================fqqesssssaqqq0333::6==-3::::::::::::::",
":::::::36====    -========fiipssssssssst==-36= -=-3::::::333::::",
"33:::36=====,::::3-===  -====fipsssiiit= -===,:3-=-3::::6==-3:::",
"=-3:3      ,::::::3==,::3      1aar    ,:3  ,:::3  ,:::6====-336",
"==-333::::::::::::3 ,:::::::::::::::::::33:::::3333:::3=========",
"==   ,:::::::::::::::::::444444:::444:36=-3:336===-3::6===  -===",
" ,::::::::44444::444::>q8%$+++.4:<++.2====-6=======-36===,::3   ",
":::::::::<++++.4<++.4>esssi%$++.<+#%$@&================= :::::::",
":::::::4<#%%%$++#%$+Xessssssi$+++#dsi$@*gf=== -==  -====,:::::::",
"::::44<#%dsssi%%dsi%dssssssssi$+#dsssi%dspf= :3 ,::3-==-3333333:",
"330<#%%dsssssssssssssssssiipssi$%ssaassssspg1:::::::3=========-3",
"gji%dsssssssiipssssssssst==fpssidsy:qassssssaqq:::::3=====gggggg",
"ssaaaaaassit==fipssiiiit====fiipay:::qaaaaasssy:::::6=gggjssssss",
"ay:::::qar   -==fit============-333:::::::qaay:::::3 1aaaaaaaaaa",
":::::::::::::3   -================-333:::333333:::::::::::::::::",
">qqqq::::::::::::3   -===============-336===== :::::::::::::::::",
"esssaq::::::::::::3336===  -===============ggf ::::::::::::::::>",
"sssssaqqq::::33336======,::3-=======     fjssp1::::::::::::>qqqe",
"ssaaasssaq::3          ,::::3====  ,:>qq:qssssaq:::::::::::qaass",
"sy::qasssaq:::::::::::::::::3   ,::>qesaqesssssa:::::::::::::qaa"
};
