/* XPM */
static char *f1edb6187eb64d8bd0f2a967511f07172O5cniPTrB7yTIxO[] = {
/* columns rows colors chars-per-pixel */
"64 64 234 2 ",
"   c #0C1225",
".  c #101628",
"X  c #161C2D",
"o  c #191E2F",
"O  c #1B1E30",
"+  c #1C232E",
"@  c #1D2331",
"#  c #1F2933",
"$  c #23292F",
"%  c #28322F",
"&  c #313A2E",
"*  c #232334",
"=  c #2B2435",
"-  c #242A32",
";  c #292C34",
":  c #2B2539",
">  c #2B2E3A",
",  c #372939",
"<  c #342A3C",
"1  c #2C3433",
"2  c #2B3537",
"3  c #333532",
"4  c #33333B",
"5  c #3A343D",
"6  c #383B38",
"7  c #432D3B",
"8  c #48353C",
"9  c #57343E",
"0  c #3D492F",
"q  c #364639",
"w  c #444836",
"e  c #524D35",
"r  c #4C5C36",
"t  c #49583A",
"y  c #565C3A",
"u  c #56653A",
"i  c #566A3B",
"p  c #64673E",
"a  c #63773D",
"s  c #372941",
"d  c #3B2B42",
"f  c #373843",
"g  c #442E46",
"h  c #493645",
"j  c #583647",
"k  c #5A3752",
"l  c #673A44",
"z  c #713E4F",
"x  c #633A55",
"c  c #663B57",
"v  c #6B3D5A",
"b  c #723F56",
"n  c #3F434B",
"m  c #3E5444",
"M  c #484646",
"N  c #564647",
"B  c #534B4A",
"V  c #445745",
"C  c #435B43",
"Z  c #5A534D",
"A  c #4F4B57",
"S  c #565854",
"D  c #6C4E4C",
"F  c #7A4148",
"G  c #774158",
"H  c #645652",
"J  c #645A52",
"K  c #6A5C54",
"L  c #7B5551",
"P  c #4E674B",
"I  c #55724B",
"U  c #5D7C4D",
"Y  c #5B7B51",
"T  c #53715D",
"R  c #69764A",
"E  c #607F4E",
"W  c #6C6457",
"Q  c #736658",
"!  c #7C6B5C",
"~  c #664C62",
"^  c #5B656B",
"/  c #726F67",
"(  c #797567",
")  c #814247",
"_  c #8A464B",
"`  c #94494D",
"'  c #874657",
"]  c #944A56",
"[  c #9C4C55",
"{  c #895854",
"}  c #965854",
"|  c #A44E53",
" . c #A75657",
".. c #AC5154",
"X. c #B45454",
"o. c #B75B58",
"O. c #836B5D",
"+. c #9A675C",
"@. c #85745F",
"#. c #AA675E",
"$. c #BA655D",
"%. c #877066",
"&. c #887764",
"*. c #927D65",
"=. c #967A6A",
"-. c #987C6A",
";. c #A96D61",
":. c #BD6D61",
">. c #AA7264",
",. c #BE7365",
"<. c #BC7B69",
"1. c #C07766",
"2. c #C27D6A",
"3. c #70863E",
"4. c #5F8050",
"5. c #6E8645",
"6. c #68854B",
"7. c #728745",
"8. c #748B44",
"9. c #778A47",
"0. c #7A9245",
"q. c #7B9749",
"w. c #658752",
"e. c #6D9256",
"r. c #759B58",
"t. c #79A45E",
"y. c #7FAA5F",
"u. c #698B69",
"i. c #6E976F",
"p. c #789A6C",
"a. c #669073",
"s. c #6C9472",
"d. c #76A363",
"f. c #78A762",
"g. c #7AA862",
"h. c #85874A",
"j. c #869648",
"k. c #97954E",
"l. c #899356",
"z. c #999A53",
"x. c #A19D51",
"c. c #8AA54A",
"v. c #92AD4B",
"b. c #99AE4D",
"n. c #96B44D",
"m. c #99B64E",
"M. c #9BB94E",
"N. c #89AA55",
"B. c #83AC5C",
"V. c #8CAD5B",
"C. c #99A656",
"Z. c #8DB156",
"A. c #8CB058",
"S. c #94B552",
"D. c #9AB751",
"F. c #9AB457",
"G. c #A5A453",
"H. c #A5B457",
"J. c #AFB056",
"K. c #A3B951",
"L. c #ACB954",
"P. c #ACB55C",
"I. c #B5B257",
"U. c #B4BA57",
"Y. c #B4B55C",
"T. c #BAB65A",
"R. c #B6B958",
"E. c #BDBA5A",
"W. c #99856A",
"Q. c #829E6B",
"!. c #8D8970",
"~. c #938D76",
"^. c #9B9679",
"/. c #A28A6E",
"(. c #AB966B",
"). c #A98C71",
"_. c #AC9473",
"`. c #B69A75",
"'. c #81AA61",
"]. c #8BAC60",
"[. c #89A268",
"{. c #91A467",
"}. c #BAA179",
"|. c #BDA279",
" X c #C4826D",
".X c #C78970",
"XX c #CC9976",
"oX c #C2A57A",
"OX c #C9A97B",
"+X c #CBAC7E",
"@X c #D2AC7F",
"#X c #717580",
"$X c #7E8189",
"%X c #8B8B8A",
"&X c #A99E8A",
"*X c #B1A98A",
"=X c #B2AFA9",
"-X c #C6AE81",
";X c #C7B589",
":X c #D4B482",
">X c #D6B986",
",X c #D6B788",
"<X c #D9BC8A",
"1X c #D2B993",
"2X c #C5BEB5",
"3X c #DAC18D",
"4X c #DDC592",
"5X c #D3CC9C",
"6X c #DACA98",
"7X c #E1CC98",
"8X c #E5D29C",
"9X c #D7CBA9",
"0X c #E4CCA2",
"qX c #E6D5A5",
"wX c #E6DAA4",
"eX c #EBDCA6",
"rX c #ECDEA9",
"tX c #E7D9B6",
"yX c #EAE0A6",
"uX c #EEE1AB",
"iX c #EFE3B4",
"pX c #F1E6BA",
"aX c #C6C6C9",
"sX c #D5CECB",
"dX c #E8DFC8",
"fX c #EDE3C6",
"gX c #F2E8C3",
"hX c #F4ECCC",
"jX c #E8E5D9",
"kX c #F4ECD5",
"lX c #F7F2DA",
"zX c #EBEAE6",
"xX c #F9F5EA",
"cX c #FBF9F5",
/* pixels */
"L.M.M.M.M.K.U.U.U.U.L.M.M.M.M.M.m.v.8.r e e w 0 3.j.v.M.M.M.M.M.M.M.M.L.E.E.E.E.E.E.E.P.P.Y.E.E.K.K.K.K.M.M.M.M.M.M.M.M.M.M.M.M.",
"M.M.M.M.M.M.M.M.M.M.M.M.M.M.M.n.8.u % , F _ 9 + % & r 0.v.M.M.M.M.D.F.P.P.P.P.P.P.P.H.].'.].P.E.E.E.E.U.K.K.K.K.D.S.S.S.M.M.M.M.",
"S.M.M.M.M.M.M.M.M.M.M.M.M.m.v.a % + o , ` $.{ D D N ; 6 r 8.v.M.n.Z.y.'.'.'.V.B.'.'.g.g.g.g.].P.P.P.P.P.P.P.P.P.F.'.g.B.S.S.S.S.",
"B.S.S.S.S.S.S.S.S.S.M.M.m.v.a % + , l ` o.,.<.<.<.;.{ L 8 w r q.Z.y.g.g.B.B.S.S.B.g.g.g.g.g.g.g.'.'.'.g.'.'.'.'.g.g.g.g.g.g.g.g.",
"g.g.g.g.g.y.B.B.B.A.M.M.v.a % : h ` ..$.$.,.2.1.$.$.1.<.#.} N t e.B.B.B.S.m.M.M.S.B.B.y.g.g.g.g.g.g.g.g.g.g.g.g.g.g.g.g.g.g.g.g.",
"B.B.B.B.B.B.S.S.S.m.M.M.3.% @ 7 ' X.X.:.2. X X1.:.,.2. X X X>.N y j.n.m.M.M.M.M.M.m.S.S.B.g.g.g.B.B.B.y.g.g.g.g.g.g.g.g.g.g.g.g.",
"S.S.S.S.S.m.M.M.M.M.M.c.w o 7 _ ..X.X.$. X X X X X1.$.,. X X2. .l t j.M.M.M.M.M.K.K.K.M.S.g.g.B.S.S.S.S.B.g.B.B.y.g.g.B.B.B.B.B.",
"M.M.M.M.M.M.M.M.M.M.M.5.; < j ] X.X.X.o.,. X X X X2.:.$.,. X X,.L ; i n.m.M.M.L.E.E.U.K.S.g.B.S.M.M.M.M.S.A.S.S.S.B.B.S.S.D.D.D.",
"K.K.M.M.M.M.M.M.M.M.m.a ; d b [ X...` l j N N { >. X X1.+.+.2. X>.5 6 8.m.M.L.E.E.E.E.R.H.V.B.S.M.M.M.M.M.M.M.M.M.m.m.M.M.K.K.K.",
"E.U.M.M.M.M.S.S.V.V.V.U ; j ' | ..l , O X X X ; h +. X X;.D {  X<.{ 8 I Z.K.E.E.E.E.E.E.E.P.V.A.M.M.M.M.M.M.M.M.K.K.K.K.L.E.E.E.",
"E.L.M.M.M.S.B.i.s.s.s.P ; x | X.| j s d d < O X X 8 +. X2.L 8 +. X;.8 y [.H.E.E.E.E.E.E.E.E.U.D.M.M.M.M.M.K.K.L.E.E.E.E.E.E.E.E.",
"L.D.Z.S.S.B.s.s.p.p.s.P * j ] ..| ' v c c x g O X o 8 } <.<.F 5 ;.,.l & z.T.E.E.E.E.E.E.E.E.E.K.K.M.M.M.K.R.E.E.E.E.E.E.E.E.E.R.",
"D.B.i.p.'.i.s.[.P.P.p.T ; < c ' ..[ G c v v x < X X o 8 #.<.} * {  .j 1 x.E.E.E.E.E.E.E.E.E.E.E.U.M.M.M.K.U.R.R.R.R.R.R.R.U.L.K.",
"V.i.s.p.p.s.p.Y.E.T.P.Q.V * h G ] ' v v v c k : $ * X , ' o.} 7 } ' j 6 z.E.E.E.E.Y.Y.E.E.E.E.E.E.K.K.K.M.M.M.M.M.M.M.M.M.M.M.M.",
"B.i.[.Y.P.Q.[.Y.E.E.E.Y.k.q * < k k k k k d = ; R u ; @ l | z j [ G g w C.E.E.T.H.].].P.E.E.E.E.E.E.E.U.K.M.M.M.M.M.M.M.M.K.D.S.",
"Q.[.Y.E.E.Y.Y.R.R.E.E.E.T.k.q o * * * * * o ; I t.r.q X 9 | , 7 _ h ; a D.U.P.H.'.g.g.].E.E.E.E.E.E.R.U.L.M.M.M.M.M.M.K.L.R.P.[.",
"Y.T.E.E.E.E.U.K.M.K.U.E.E.T.j.i r $ $ - ; t I e.r.U 2 X 9 ' g l ` = q 0.S.Z.'.g.g.g.g.].P.R.R.R.U.L.K.M.M.M.M.M.M.K.L.E.E.E.T.Y.",
"E.E.E.E.R.L.K.M.M.M.K.E.E.R.M.n.c.U U U U w.I q q q X O j j : j j O ; q U r.f.g.g.g.g.y.S.M.M.M.M.M.M.M.M.M.M.M.L.E.E.R.U.I.J.T.",
"E.E.R.L.K.M.M.M.M.M.K.U.R.U.M.S.y.f.f.d.w.q 1 h B B X < j = X = < B Z 4 ; t e.B.y.g.g.g.B.S.M.M.M.M.M.M.M.M.K.L.R.E.U.K.b.G.(.I.",
"U.L.K.M.M.M.M.M.M.M.M.M.K.L.S.A.g.d.d.4.6 ; ! *X*X%.M ~ ~ f f f A 2XsX=X^ - t c.S.B.y.g.g.B.S.S.M.M.M.M.M.K.U.U.U.L.K.v.C.OXoXY.",
"M.M.M.M.M.M.M.m.S.S.S.S.S.Z.y.g.g.t.w.q o @ S =XtXsXsXsXsXaXaXaXaXjXjX*XM o $ i n.S.S.B.B.B.B.A.M.M.M.M.M.M.M.M.M.M.v.C.OX1X(.C.",
"M.M.M.M.M.M.M.S.B.B.B.g.g.g.g.g.g.r.r o 4 h > M !.tXlXlXlXhXdXfXdXqX6X_.Q J 4 & q.M.M.n.S.S.S.m.M.M.M.M.M.M.M.D.S.N.z.OXtX9XZ q.",
"M.M.M.M.M.M.M.M.m.S.S.B.B.y.g.g.y.5.% X B %.Q &.&XqXrXuXrXqX0XqXqXiXiXeX4X+X@.- a M.M.M.M.M.M.M.M.M.M.M.M.M.S.Z.t.l.OXtXxX=X; 0.",
"M.M.M.M.M.M.M.M.K.K.M.n.S.S.B.B.N.a X * K =.).>X8XrXrXiXgXgXhXxXxXxXxXhXqX3X}.M r v.M.M.M.M.M.D.S.S.S.M.M.S.Z.r.P W.tXxXcX*X- 0.",
"M.M.M.M.M.M.M.L.E.U.K.M.M.M.D.K.c.w o f %.-.`.:X3XrXuXiXhXhXhXlXxXcXcXxXhXwX4X&.1 q.m.M.M.M.S.Z.y.g.B.S.S.A.t.E 2 &XxXcXlX&X- 0.",
"M.M.M.M.M.K.L.E.E.E.U.K.K.K.L.E.k.; * K =.W.+X:X<XeXuXuXuXuXuXuXgXkX=X( 9XeXwX-XM r v.m.M.S.Z.y.g.g.g.g.g.g.r.W./ dXcXcXpX^.- 0.",
"S.S.S.S.K.E.E.E.E.E.E.E.E.E.E.E.k.* ; ! =./.+X:X>X8X8XrXuXuXuXuXiXhX%X* /.7XrX6XW % 0.m.S.Z.y.g.g.g.g.g.g.d.{.-X9XlXcXtXqX&X- 8.",
"g.y.B.Z.L.U.E.E.E.E.E.E.E.E.E.I.p + * H =._.:X:X:X>X4XwXuXuXuXuXhXlX%X  J -XtXtXW X r N.A.g.g.g.g.g.g.g.f.w.Q 1XlXlXkX<X4X^.- w.",
"B.V.S.m.M.K.K.U.E.E.E.E.E.E.R.C.3 @ M O.=.oX:X:X:X:X<X4XqXwXrXgXcXcX%X  > W.0XtX&.4 V p.d.d.f.g.g.g.g.g.r.C > aXxXfX0X4X4X!.2 e.",
"S.m.M.M.K.K.K.H.I.T.E.E.E.U.D.r.2 @ H -.-.oX:X:X:X:X:X>X<X7XrXgXlXlX%X  @ @.>XqX9XJ m u.a.i.d.y.B.B.B.y.e.2 S jXhX6X>X4X^.5 P v.",
"M.M.K.L.E.I.h.y p h.I.E.R.K.n.a $ @ H -.).+X:X:X:X:X:X:X:X8XuXuXhXlX%X  O M |.0XtXM 2 T a.a.i.B.V.V.V.N.u ; &XgXwX>X:X-XB % 0.m.",
"M.L.E.E.E.z.3 @ > 3 h.I.L.M.n.t X @ H -._.:X:X:X:X:X:X:X:X8XuXuXhXzX#X  X @ &.}.&X4 @ P a.a.a.s.s.s.i.w.1 S 5XyX4X:X:X&.; C v.M.",
"L.R.R.R.R.j.$ > @.M 3 h.m.M.n.t X O h H O.`.`.+XOX*.@.@.@.!.~.~.&X$X> X X X ; 4 4 O @ P a.a.a.s.p.p.p.V > ^.uX8X>X:X|.B - Y V.K.",
"U.L.K.M.M.0.$ * W W.Q w r j.m.y + X @ f ! W.`.+XOXW.J 4 * # - - ; # X X X X X X ; > + w u.a.s.[.Y.Y.k.3 B 5X8X>X:X:X*.; V p.{.R.",
"M.M.M.M.M.0.- X ; Q |.@.4 w h.8.1 X * K =./.+X:X:X>X;X^.S M * X X o X X X X @ M ~.~.- 3 l.p.Q.Y.E.I.p 4 ^.5X( }.:X|.M 3 k.Y.T.E.",
"M.K.K.K.M.0.; , * ; Q oX@.> $ e ; X * H =.).+X:X:X>X4X8X6X1X&./ / / A X X X 5 `.qX5XS 1 l.{.Y.E.E.k.3 S 5X^.5 `.:X*.; p T.E.E.E.",
"L.E.E.U.K.0.; F F 9 5 ! `.*.5 * X X X 5 %./._._.`.:X:X>X4XwXwXwXfXjXaXn X @ ! <XtXuX!.% k.R.E.E.I.p > ^.wX( W +X|.B 3 k.E.E.E.E.",
"E.E.E.E.U.0.; _ X.| ) l O.W.*.Z 4 X X @ B %.-.-.|.:X:X:X:X7XrXuXpXlXjX^ . h }.tXlXiX~.% k.T.E.E.k.3 S 5X;XB *.:XW.; p J.E.E.E.E.",
"E.E.E.E.R.0.; _ X.X.X.| { Q W.).W.Q h * ; N %.=.|.:X:X:X:X<XwXuXuXiXdX^ . ! 1XfXpX8X&.+ y p k.G.p ; ~.8X!.B _.|.B 3 k.T.E.E.E.E.",
"E.E.E.E.E.j.; _ X.X.X.X.o.>._._.`._./.W.J n J B J `.:X:X:X>X7XrXuXiXjX^ + W.8XrXuX;XM o > 4 w u r M ;X^.H @.+XW.- u J.E.E.E.E.E.",
"R.E.E.E.E.k.; _ X.X.X.X.o.XX`.Q M M ( ^._.*X*XW + W :X:X:X:X3XrXuXuXtX%X%X1XwXuXwX!.# ; { ;.j $ 2 *.}.B 5 `.oXM % j.E.E.E.E.E.R.",
"M.K.U.R.U.k.; _ X.X.$.:.$.XX:X|.&.! B > B !.;X! X 5 W.+X+X>X<XrXuXuXpXjXzXfXeXeX;XM * 9 L ;.} = M |.&.* H +X&.; r m.U.R.R.U.L.K.",
"M.M.M.M.M.0.; _ X.X.o.:.:.@X3X<X:X+X_.! 4 5 |.Q X o 5 B Q _.,XrXuXuXpXlXhXiX8X;XQ @ h } 9 8 l , @.`.M < %.`.M 1 0.M.M.M.M.M.M.M.",
"M.M.M.M.M.0.; _ X.X.o.:.2.4XyX8X>X:X:X+XJ 6 ;XQ X X X X * 5 &.;XwXrXpXkXgXrX6XQ < O N 1.{ , * M `.@.* B =.K ; r n.M.M.M.M.M.M.M.",
"M.M.M.M.M.0.; _ X.X.X.o.2.,XeX8X3X:X:X:XQ 5 -XQ X o O o X X * M &.*X5XrXeX5X( < j < j ,.:._ , 4 H 4 4 ! %.5 + r c.m.M.M.M.M.M.M.",
"M.M.M.M.M.0.; { X.X.X.o.,.XX4X4X4X<X:X:X@.5 `.Q X : h < : O X X # h B ~.~.B ; d x g , F o.X._ 7 = X 5 Q Z : O + r c.S.S.M.M.M.M.",
"S.S.M.M.m.8.; -. X$.X.X.$. X4X4XwX7X:X:X).B `.Q X , ' c k g d : o X X > > O d v ' c d = l ` ..` j < * ; * < g 9 8 t r.B.S.M.M.m.",
"g.B.S.m.S.6.; W.:XXX X:.$.,.<X<X4X<X:X:X`.H `.Q X , [ [ ' v c k g * O X o d c [ ] x : o : 7 9 _ ' c g < O * h F l % w.f.B.S.S.Z.",
"g.g.B.S.S.8.; /.:X:X>X4X:X.X@X:X:X:X:X:X`.*.oXW X < ] X...[ ' G c k g : d x ' | G g O 4 K B 5 , h k c k d O * : = q e.f.g.g.g.g.",
"g.g.B.B.B.6.; W.:X:X4XeXwX,X.XXX:X:X:X:X`.W.+XW X < ' ..X.X...[ ' G x k x ' | ' h * O H -.W.W.Z O * d j g d s O 2 w.y.B.y.g.g.g.",
"B.B.S.S.S.8.- Z oX:X3X7XwX7X:.,. XOX@X:X*.%.+XW X 7 [ X.X.X.X.X...] G G ' [ | l * X @ H ).oX:X`.J ; O = d j d # C B.S.S.S.B.B.B.",
"S.m.M.M.M.j.& 4 `.:X>X4XwX8X X1.$.:..XOXQ H OXW X , ' | X.X.X.X.X.X.| | ..[ l = X X @ H ).:X:X:X|.! * o @ ; * 2 e.S.M.M.M.n.S.S.",
"M.M.M.M.M.n.i ; @.:X:X>X4X<X2.2.:.$.$.$.D 4 ).W X < v G ] | X.X.X.X.X...[ z = X @ - @ M *.oX:X:X:X/.; - q C C I B.S.M.M.M.M.M.M.",
"M.M.M.S.Z.Z.e.2 M oX:X:X:XOX:.:.$.o.o.X.l ; *.K X : k k k z z z z z z z 7 * X * u t + @ M %.*._./.Z # t r.t.t.t.Z.S.S.S.S.S.S.M.",
"S.S.D.V.p.Q.p.V ; J oX:X:X:X Xo.o.X.X.X.l ; %.B X O * * * * * * * * * * o + w R x.w * < * ; > 5 4 * % 7.Z.g.f.g.g.g.g.g.g.g.B.S.",
"V.F.P.[.[.P.Y.G.p > K oX:X:XXXo.X.X.X.X.l N Q 4 X X X X - ; ; - o X X X & p z.I.G.6 < k d X + $ % r 3.v.S.g.g.g.g.g.].].].].].V.",
"R.R.R.P.P.R.R.R.G.y ; W oX:XOX:.X.X.X.) N K 5 X X X X 2 I R R p 1 X X + u b.U.U.G.6 * g g o i 3.3.c.m.D.Z.'.].].].F.Y.R.R.R.R.R.",
"U.L.K.M.M.M.M.K.U.C.t ; K oX:X1.X.X.) 5 N 5 # 2 # X X 2 Y w.w.C + X X % 5.c.c.v.v.r + * * 6 j.M.M.M.M.S.B.V.P.U.U.U.R.R.R.R.R.R.",
"M.M.M.M.M.M.M.M.M.M.c.r ; J oX1.X.F , ; > - C I m @ X # C Y Y m X X # t 6.5.7.0.q.5.i a a 8.S.m.M.M.M.M.m.D.M.M.M.M.M.M.M.M.M.M.",
"M.K.K.K.K.M.M.M.M.M.m.c.u 1 H #.) 7 B ; - C Y I m # X o q Y I q X X 2 C U E 5.5.6.4.w.e.t.t.B.n.M.M.M.M.M.M.M.M.M.M.M.M.M.M.M.M.",
"L.E.E.E.U.K.M.M.M.M.M.m.c.u ; 9 , h H 2 t E I q - # # # q Y P - @ # # 2 C Y Y Y Y Y Y w.r.B.B.S.M.M.M.M.M.M.M.M.M.M.M.M.M.M.M.M.",
"E.E.E.E.E.U.K.K.K.M.M.M.m.c.r + X ; 6 C U Y I C C t t t P Y I V m V m V P U E E E E 6.h.k.P.F.D.M.M.M.M.M.M.M.M.M.M.M.M.K.K.K.K.",
"E.E.R.R.E.E.E.E.U.K.M.M.S.B.r.t + - C U E E E 6.5.7.7.7.6.Y Y Y Y U E 6.5.7.7.7.7.7.h.h.k.T.U.K.M.M.M.M.M.M.M.M.M.M.M.K.U.U.E.E.",
"E.U.K.M.K.E.E.E.E.U.K.M.M.n.n.c.i u 5.5.5.5.5.5.7.7.7.7.5.E U U 6.5.5.7.7.8.h.h.7.8.h.h.G.E.E.R.M.M.M.M.M.M.M.M.M.M.M.M.M.K.R.E."
};
