/* XPM */
static char *_4845bbec0ec4792d1244646cca5bd66N1J5vDnQbRtzvJS4[] = {
/* columns rows colors chars-per-pixel */
"64 64 196 2 ",
"   c None",
".  c #392129",
"X  c #253634",
"o  c #2B3F3D",
"O  c #4A292D",
"+  c #432630",
"@  c #462830",
"#  c #462832",
"$  c #492A33",
"%  c #512E3A",
"&  c #573035",
"*  c #5A3237",
"=  c #5B3337",
"-  c #56313C",
";  c #5F373F",
":  c #613733",
">  c #613639",
",  c #623739",
"<  c #62373E",
"1  c #663C39",
"2  c #61383E",
"3  c #744A36",
"4  c #72413B",
"5  c #5A3440",
"6  c #5E3643",
"7  c #5F3743",
"8  c #613744",
"9  c #623844",
"0  c #623944",
"q  c #653945",
"w  c #643A44",
"e  c #663A45",
"r  c #673B45",
"t  c #663C45",
"y  c #693A40",
"u  c #683B45",
"i  c #693B46",
"p  c #693D45",
"a  c #6C3F46",
"s  c #6E3F47",
"d  c #6F3F47",
"f  c #2D4340",
"g  c #344C4A",
"h  c #3A5553",
"j  c #3C5E53",
"k  c #3E5855",
"l  c #3C5956",
"z  c #3C5C54",
"x  c #3A6E4B",
"c  c #3D6D4B",
"v  c #397646",
"b  c #3F7747",
"n  c #3B7D43",
"m  c #397B44",
"M  c #397A45",
"N  c #3A7149",
"B  c #3A7248",
"V  c #434747",
"C  c #455654",
"Z  c #4E5352",
"A  c #4B5751",
"S  c #4B5453",
"D  c #545151",
"F  c #6E4A4E",
"G  c #724042",
"H  c #724046",
"J  c #754147",
"K  c #724547",
"L  c #7A4843",
"P  c #714148",
"I  c #724048",
"U  c #734048",
"Y  c #764249",
"T  c #774349",
"R  c #754548",
"E  c #74464B",
"W  c #71474C",
"Q  c #79434A",
"!  c #7A444A",
"~  c #7B454A",
"^  c #7D464B",
"/  c #7E464B",
"(  c #7F474B",
")  c #794849",
"_  c #7A4949",
"`  c #7C4A4A",
"'  c #674750",
"]  c #6A4851",
"[  c #7B5155",
"{  c #407648",
"}  c #88563F",
"|  c #91623A",
" . c #804845",
".. c #894E47",
"X. c #814B49",
"o. c #82494C",
"O. c #824A4C",
"+. c #834A4C",
"@. c #844B4C",
"#. c #854B4D",
"$. c #864D4C",
"%. c #894D4E",
"&. c #8A4F4E",
"*. c #86524B",
"=. c #88554B",
"-. c #88504D",
";. c #8A514D",
":. c #8B514D",
">. c #8D504E",
",. c #8E534E",
"<. c #89554C",
"1. c #8F544E",
"2. c #90514F",
"3. c #91524F",
"4. c #92574F",
"5. c #96554F",
"6. c #995E4B",
"7. c #9B5B4F",
"8. c #955450",
"9. c #965551",
"0. c #975651",
"q. c #9A5852",
"w. c #9B5852",
"e. c #9C5952",
"r. c #9F5A53",
"t. c #9A5D50",
"y. c #9C5F50",
"u. c #A05B53",
"i. c #A15C53",
"p. c #A35E53",
"a. c #A45F54",
"s. c #A4684C",
"d. c #A97244",
"f. c #A26053",
"g. c #A36452",
"h. c #A66751",
"j. c #A46452",
"k. c #A86254",
"l. c #A96454",
"z. c #AB6655",
"x. c #AC6755",
"c. c #AB6A54",
"v. c #B06D55",
"b. c #B36D56",
"n. c #B46E56",
"m. c #B76F57",
"M. c #B57156",
"N. c #B67057",
"B. c #B77157",
"V. c #B87157",
"C. c #B87457",
"Z. c #BB7557",
"A. c #BC7657",
"S. c #BE7858",
"D. c #BF7958",
"F. c #C07B56",
"G. c #C17F57",
"H. c #C37F56",
"J. c #C47E59",
"K. c #49893F",
"L. c #4D8C3E",
"P. c #4F8D3E",
"I. c #5C8E3F",
"U. c #5B963B",
"Y. c #5B983A",
"T. c #5D993A",
"R. c #62933E",
"E. c #619C39",
"W. c #639E38",
"Q. c #69A336",
"!. c #6FA835",
"~. c #68A139",
"^. c #71AA34",
"/. c #78AE35",
"(. c #7BB035",
"). c #3F8042",
"_. c #418242",
"`. c #478740",
"'. c #92B534",
"]. c #9CB734",
"[. c #92BB3E",
"{. c #94BD3E",
"}. c #9BC439",
"|. c #A2C93A",
" X c #A5CA3A",
".X c #ACCF3B",
"XX c #B3D33C",
"oX c #B6D53C",
"OX c #CD8A52",
"+X c #C48258",
"@X c #C88259",
"#X c #CB835A",
"$X c #CD855A",
"%X c #CC865A",
"&X c #E79B5F",
"*X c #EEA160",
/* pixels */
"          ].oXoXoXoXoXoXoXoXoXoXoXoXoXoXoXoXoXoXoXoXoXoXoXoXoXoXoXoXoXoXoXoXoXoXoXoXoXoXoXoXoXoXoXoXoXoXoXoXoXoXoXoXoXoXoX      ",
"          '.|.|.|.|.|.|.|.|.|.XXoX X|.|.|.|.|.|.|.|.|.|.|.|.|.|.|.|.|.|.|.XXoX X|.|.|.|.|.|.|.|.|.|.|.|.|.|.|.|.|.XXoXoXoX      ",
"      ].oX(.^.^.^.^.^.^.^.^.^..XoX(.^.^.^.^.^.^.^.^.^.^.^.^.^.^.^.^.^.^.^..XoX(.^.^.^.^.^.^.^.^.^.^.^.^.^.^.^.^.^..XoXoXoXoXoX  ",
"      '.|./.^.^.^.^.^.^.^.^.^.}.|./.^.^.^.^.^.^.^.^.^.E.E.!.^.^.^.E.E.!.^.}.|./.^.E.E.E.E.!.^.^.^.^.^.E.E.E.E.!.^.}.|.|.|.XXoX  ",
"oXoXoX(.^.^.^.^.^.^.^.^.^.^.^.^.^.^.^.^.^.^.^.^.^.^.^._.m Q.^.^.^._.m Q.^.^.^.^.^._.m m m Q.^.^.^.^.^._.m m m Q.^.^.^.^.^..XoXoX",
"|.{.[.~.E.E.E.E.E.!.^.^.^.E.E.E.E.E.E.!.^.E.E.E.E.!.^.P.K.T.E.E.E.).m Y.E.E.E.E.E.).m m m Y.E.E.E.!.^.P.K.n m Y.E.E.E.!.^.}.|.|.",
"^._.m m m m m m m Q.^.^.^._.m m m m m Q.^._.m m m Q.^.^.^._.m m m m m m m m m m m m m m m m m m m Q.^.^.^._.m m m m m Q.^.^.^.^.",
"^._.m m m m m m m Y.E.E.E.).m m m `.K.T.E.).m m m Y.E.E.E.).m `.K.n m m m m m m m m m m m m m m m Y.E.E.E.).m `.K.n m Y.E.E.E.!.",
"^._.m m m m m m m m m m m m m m m Q.^._.m m m m m m m m m m m Q.^._.m m m m m m m m m m m m m m m m m m m m m Q.^._.m m m m m Q.",
"R.{ N m m m m m m m m m m m m m m Y.E.).m m m m m N N m m m m Y.E.P.K.n m m m m m m m m m m m `.K.n m m m m m Y.E.P.K.n m N N I.",
"l l l v m m m m m m m m m m m m m m m m m m m m m j l v m m m m m Q.^._.m m m m m m m m m m m Q.^._.m m m m m m m Q.^._.m j l l ",
"l l l x N m m m m N N N N N N m m m m m m m m N N z l x N m m m m Q.^._.m m m N N N N m m `.K.T.E.).m m m m m m m Y.E.b N z l l ",
"l l l l l v m m m j l l l l l v m m m m m m m j l l l l l v m m m Q.^._.m m m j l l l v m Q.^._.m m m m m m m m m m m j l l l l ",
"o o o h l x N N N z l l l l l x N m m m m m m j l l l l l x N m m Y.E.).m N N z l l l x N U.E.).m N N N N N N N N N N z l l l f ",
"      g l l l l l l l l l l l l l v m m m m m j l l l l l l l v m m m m m j l l l l l l l v m m m j l l l l l l l l l l l l l   ",
"      g l l l l l l l S Z Z Z l l x N N N N N z l S Z l l l l x N N N N N z l l l S Z Z Z c N N N S Z l l l l l l l l l l S Z   ",
"      g l l l l l l l W ! ! ! C l l l l l l l l l W ! C l l l l l l l l l l l l l W ! ! ! C l l l W ! C l l l l l l l l l W !   ",
"      X o h l S Z Z Z E ! ! ! D Z l l l l l l l l W ! D Z Z Z Z Z l l S Z Z Z Z Z E ! ! ! D Z Z Z E ! D Z Z Z Z Z l l S Z E !   ",
"          g l W ! ! ! ! ! ! ! ! ! C l l l l l l l W ! ! ! ! ! ! ! C l W ! ! ! ! ! ! ! ! ! ! ! ! ! ! ! ! ! ! ! ! ! C l W ! ! !   ",
"          V Z E ! +.#.#.#.#.#.! ! D Z l l l l S Z E ! +.#.#.#.! ! D Z E ! +.#.#.#.#.#.#.#.#.#.#.#.#.#.#.#.#.#.! ! D Z E ! * &   ",
"          y ! ! ! w.u.u.u.u.u.( ! ! ! C l l l W ! ! ! w.u.u.u.( ! ! ! ! ! w.u.u.u.u.u.u.u.u.u.u.u.u.u.u.u.u.u.( ! ! ! ! !       ",
"          G #.#.#.e.u.u.u.u.u.%.#.! ! D Z Z Z E ! +.#.e.u.u.u.%.#.#.#.#.#.e.u.u.u.u.u.u.u.u.u.u.u.u.u.u.u.u.u.%.#.! ! ! !       ",
"          ..u.u.u.u.u.u.u.u.u.u.u.( ! ! ! ! ! ! ! w.u.u.u.u.u.u.u.u.u.u.u.u.u.u.u.u.u.u.u.u.u.u.u.u.u.u.u.u.u.u.u.( ! ! !       ",
"           .8.e.u.k.l.i.u.k.l.i.u.%.#.#.#.#.#.#.#.e.u.u.u.u.u.u.u.u.u.u.u.u.u.u.u.k.l.i.u.u.u.u.u.u.u.u.u.u.u.u.u.%.#.! !       ",
"          y ! w.u.Z.D.a.u.Z.D.a.u.u.u.u.u.u.u.u.u.u.u.u.u.u.u.u.u.u.u.u.u.u.u.u.u.Z.D.a.u.u.u.u.u.u.u.u.u.u.u.u.u.u.u.( !       ",
"          O & 5.u.b.B.i.u.Z.D.x.l.l.l.i.u.u.u.u.u.u.u.u.u.u.u.u.u.u.u.k.l.i.u.u.u.b.B.i.u.u.u.k.l.i.u.k.l.i.u.k.l.l.l.> &       ",
"              ..u.u.u.u.u.Z.D.D.D.D.D.a.u.u.u.u.u.u.u.u.u.u.u.u.u.u.u.Z.D.a.u.u.u.u.u.u.u.u.u.Z.D.a.u.Z.D.a.u.Z.D.D.D.          ",
"               .8.e.u.u.u.b.B.D.D.D.D.x.l.l.l.l.l.i.u.u.u.k.l.l.l.l.l.A.D.x.l.l.l.l.l.i.u.k.l.A.D.x.l.m.B.i.u.b.B.B.B.          ",
"              y ! w.u.u.u.u.u.Z.D.D.D.D.D.D.D.D.D.a.u.u.u.Z.D.D.D.D.D.D.D.D.D.D.D.D.D.a.u.Z.D.D.D.D.D.a.u.u.u.u.u.u.u.          ",
"              y ! 3.8.e.u.u.u.b.B.B.B.D.D.B.B.D.D.x.l.l.l.A.D.B.B.D.D.D.D.D.D.B.B.D.D.x.l.m.B.B.B.B.B.i.u.u.u.8.8.e.u.          ",
"              y ! ! ! w.u.u.u.u.u.u.u.Z.D.a.u.Z.D.D.D.D.D.D.D.a.u.Z.D.D.D.D.D.a.u.Z.D.D.D.a.u.u.u.u.u.u.u.u.u.( ! w.u.u.u.      ",
"              < I Q ! 3.8.e.u.8.8.e.u.Z.D.x.l.A.D.B.B.D.D.D.D.a.u.Z.D.D.D.D.D.x.l.A.D.B.B.l.l.i.u.u.u.8.8.e.u.( ! w.u.8.8.      ",
"              % 6 Y ! ! ! w.u.( ! w.u.Z.D.D.D.D.D.a.u.Z.D.D.D.a.u.Z.D.D.D.D.D.D.D.D.D.a.u.Z.D.a.u.u.u.( ! w.u.( ! w.u.( !       ",
"              - 6 d I Q ! %.>.( ! w.u.b.B.D.D.B.B.i.u.b.B.B.B.i.u.b.B.B.B.D.D.B.B.B.B.i.u.b.B.i.u.8.8.( ! 3.8.( ! w.u.> &       ",
"          y ! 9 6 6 6 Y ! 9 6 Y ! w.u.u.u.Z.D.a.u.u.u.u.u.u.u.u.u.u.u.u.u.Z.D.a.u.u.u.u.u.u.u.u.u.( ! ! ! ! ! ! ! w.u.          ",
"          < I 8 6 6 6 d I 8 6 Y ! 3.8.e.u.b.B.i.u.u.u.8.8.e.u.u.u.u.u.u.u.b.B.i.u.8.8.e.u.8.8.e.u.( ! ! ! ! ! I I 3.8.          ",
"          % 6 6 6 6 6 6 6 6 6 Y ! ! ! w.u.u.u.u.u.u.u.( ! w.u.u.u.u.u.u.u.u.u.u.u.( ! w.u.( ! w.u.( ! ! ! ! ! 9 6 Y !           ",
"          % 6 e e e e e e 6 6 d I Q ! 3.8.e.u.8.8.e.u.( ! w.u.8.8.e.u.u.u.u.u.u.u.( ! w.u.( ! 3.8.( ! I I Q ! 9 6 Y !           ",
"          % 6 Y ! ! ! ! ! 9 6 6 6 Y ! ! ! w.u.( ! w.u.( ! w.u.( ! w.u.u.u.u.u.u.u.( ! w.u.( ! ! ! ! ! 9 6 Y ! 9 6 Y !           ",
"          ; e -.>.>.>.t.y.t 6 6 6 Y ! ! ! 3.8.( ! w.u.( ! w.u.( ! 3.8.e.u.8.8.e.u.( ! 3.8.( ! I I Q ! 9 6 Y ! 9 6 d I           ",
"      s.D.#.! B.D.D.D.&X*XK 6 6 6 Y ! ! ! ! ! ! ! w.u.( ! w.u.( ! ! ! w.u.( ! w.u.( ! ! ! ! ! 9 6 Y ! 9 6 Y ! 9 6 6 6           ",
"      6.c.4.>.Z.D.#X$X$X$X*._ 9 6 Y ! ! ! ! ! ! ! 3.8.( ! 3.8.Y I Q ! 3.8.( ! w.u.( ! I I Q ! 9 6 Y ! 9 6 d I 8 6 6 6           ",
"  ..u.( ! B.D.D.D.&X*X-.! B.D.d 6 Y ! ! ! ! ! ! ! ! ! ! ! ! ! 9 6 Y ! ! ! ! ! w.u.( ! 9 6 Y ! 9 6 Y ! 9 6 6 6 6 6 6 6           ",
"   .8.1.>.Z.D.#X$X$X$X$.! j.c.p 6 Y ! ! ! I I Q ! ! ! ! ! ! ! 9 6 Y ! ! ! ! ! %.>.Y I 8 6 Y ! 9 6 Y ! u e e e 6 6 6 6           ",
"  y ! B.D.D.D.&X*X-.! ! ! ! ! 9 6 Y ! ! ! 9 6 Y ! ! ! ! ! ! ! 9 6 Y ! ! ! ! ! 9 6 6 6 6 6 Y ! 9 6 Y ! ! ! ! ! 9 6 6 6           ",
"  L >.J.$X$X$X$X$X$.! ! ! I I 8 6 Y ! ! ! 9 6 d I Q ! ! ! I I 8 6 Y ! I I Q ! 9 6 6 6 6 6 d I u e -.>.>.>.>.>.<.=.e 6           ",
"  s.D.&X*X*X*X-.! ! ! ! ! 9 6 6 6 Y ! ! ! 9 6 6 6 Y ! ! ! 9 6 6 6 Y ! 9 6 Y ! 9 6 6 6 6 6 6 6 Y ! B.D.D.D.D.D.&X*XK 6           ",
"  3 } H.$X$X$X$.! ! ! I I 8 6 6 6 d I I I 8 6 6 6 d I Q ! 9 6 6 6 Y ! 9 6 d I 8 6 6 6 e e e e -.>.Z.D.D.D.#X$X$X$XE e           ",
"      y ! ! ! ! ! ! ! 9 6 6 6 6 6 6 6 6 6 6 6 6 6 6 6 Y ! 9 6 6 6 Y ! 9 6 6 6 6 6 6 6 Y ! ! ! B.D.D.D.D.D.&X*X-.! ! ! 9 6       ",
"      < I I I I I I I 8 6 6 6 6 6 6 6 6 6 6 6 6 6 6 6 d I 8 6 6 6 Y ! 9 6 6 6 6 6 e e -.>.>.>.Z.D.D.D.D.D.&X*X-.! ! ! 9 6       ",
"      % 6 6 6 6 6 6 6 6 6 6 6 6 6 6 6 6 6 6 6 6 6 6 6 6 6 6 6 6 6 Y ! 9 6 6 6 6 6 Y ! B.D.D.D.D.D.D.D.D.D.&X*X-.! ! ! 9 6       ",
"      % 6 6 6 6 6 6 6 6 6 d I 8 6 6 6 6 6 e e e e 6 6 6 6 6 6 6 6 d I 8 6 6 6 e e Y ! B.D.D.D.D.D.D.D.#X$X$X$X$.! ! ! 9 6       ",
"      % 6 6 6 6 6 6 6 6 6 8.u.e 6 6 6 6 6 Y ! ! ! 9 6 6 6 6 6 6 6 6 6 6 6 6 6 Y ! ! ! B.D.D.D.D.D.D.D.&X*X-.! ! ! ! ! 9 6       ",
"      . + 5 6 6 6 d I _ _ w.u.d e 6 6 6 6 Y ! ! ! 9 6 6 6 6 6 6 6 6 6 6 6 6 6 Y ! -.>.Z.D.D.D.D.D.#X$X$X$X$.! ! ! I I 8 6       ",
"          % 6 6 6 8.u.Z.D.a.u.( ! 9 6 6 6 Y ! ! ! 9 6 6 6 6 6 6 6 6 6 6 6 6 6 Y ! B.D.D.D.D.D.D.D.&X*X-.! ! ! ! ! 9 6 6 6       ",
"          2 I _ _ f.l.A.D.V.m.+.! 9 6 6 6 d I +.#.` _ _ _ _ _ 9 6 6 6 6 6 6 6 Y ! B.D.#X$X$X$X$X$X$X$X$.! ! ! ! ! 9 6 # +       ",
"          ..u.Z.D.D.D.D.D.&X*X-.! 9 6 6 6 6 6 8.u.Z.D.D.D.D.D.d 6 6 6 6 6 6 6 Y ! B.D.&X*X*X*X*X*X-.! ! ! ! ! ! ! 9 6           ",
"          ..u.Z.D.#X$Xb.c.#X$X$.! 9 6 6 6 # + 7.l.A.D.#X$Xb.c.p 6 # + + + 5 6 d I g.c.#X$X$X$X$X$X$.! ! ! ! ! ! ! 9 6           ",
"          ..u.Z.D.&X*X-.! ! ! ! ! 9 6 6 6     s.D.D.D.&X*X-.! 9 6         % 6 6 6 Y ! ! ! ! ! ! ! ! ! ! ! ! ! ! ! 9 6           ",
"          : 4 F.$X$X$X$.! ! ! I I 8 6 # +     3 } j.c.H.+X1 & # +         . + + + H ! ! ! ! ! ! ! ! ! I I I I I I $ +           ",
"              OX*X-.! ! ! ! ! 9 6 6 6             y ! 9 6                         y ! ! ! ! ! ! ! ! ! 9 6 6 6 6 6               ",
"              | d.X.! I I I I $ + + +             O & # +                         O & & & J ! I I * & # + + + + +               ",
"                  y ! 9 6 6 6                                                             y ! 9 6                               ",
"                  F [ ] ' ' '                                                             F [ ] '                               "
};
