/* XPM */
static char *f3c7405d54e64873d512fb0f5582ad178EySgU35mEcUrBDl[] = {
/* columns rows colors chars-per-pixel */
"64 64 202 2 ",
"   c #181D2E",
".  c #1F252E",
"X  c #182130",
"o  c #242A2D",
"O  c #2B302B",
"+  c #252631",
"@  c #272D32",
"#  c #2D3536",
"$  c #2A3836",
"%  c #323534",
"&  c #313C34",
"*  c #3B3A36",
"=  c #393738",
"-  c #483D3A",
";  c #2E4039",
":  c #3C4236",
">  c #38463E",
",  c #3D4B3B",
"<  c #4B4936",
"1  c #44443A",
"2  c #534C39",
"3  c #47543A",
"4  c #4C5B3A",
"5  c #545A35",
"6  c #55553A",
"7  c #64583D",
"8  c #4F613E",
"9  c #59653B",
"0  c #57683D",
"q  c #5D703F",
"w  c #6D6E39",
"e  c #3A4B4A",
"r  c #3E574D",
"t  c #5D4942",
"y  c #405341",
"u  c #435B45",
"i  c #644D44",
"p  c #6E5B41",
"a  c #675849",
"s  c #795C49",
"d  c #4B6345",
"f  c #566946",
"g  c #5B7548",
"h  c #4F6A5A",
"j  c #5A7B51",
"k  c #7D6843",
"l  c #637741",
"z  c #657942",
"x  c #555A65",
"c  c #66686F",
"v  c #857C3F",
"b  c #866A48",
"n  c #8A7146",
"m  c #917947",
"M  c #956C51",
"N  c #A37F4F",
"B  c #A06F55",
"V  c #A37555",
"C  c #AB7A57",
"Z  c #7F8535",
"A  c #5E8254",
"S  c #6B8548",
"D  c #728A46",
"F  c #758F48",
"G  c #7D9A4D",
"H  c #648856",
"J  c #6F9153",
"K  c #6B945A",
"L  c #6F9A5D",
"P  c #7C9A51",
"I  c #7EA75C",
"U  c #7EAB5F",
"Y  c #5F856E",
"T  c #6B9460",
"R  c #6E976F",
"E  c #71976F",
"W  c #739A6C",
"Q  c #7B9B6E",
"!  c #668F73",
"~  c #6C9472",
"^  c #709572",
"/  c #779870",
"(  c #75A364",
")  c #78A663",
"_  c #7AA862",
"`  c #73A068",
"'  c #86873B",
"]  c #908B3F",
"[  c #9C9C3E",
"{  c #A7AA3D",
"}  c #B1B73D",
"|  c #CED53C",
" . c #EDF33E",
".. c #958445",
"X. c #849E4A",
"o. c #899C4A",
"O. c #9C9946",
"+. c #9D9C52",
"@. c #929A5A",
"#. c #AA884D",
"$. c #B5974D",
"%. c #B48656",
"&. c #BB8E55",
"*. c #BC9254",
"=. c #BE9A51",
"-. c #86A24B",
";. c #89A44A",
":. c #8EAB4C",
">. c #92AF4C",
",. c #96B54E",
"<. c #99B74F",
"1. c #9BB94E",
"2. c #86A553",
"3. c #8CAE56",
"4. c #84A75F",
"5. c #83AC5C",
"6. c #8CAE5A",
"7. c #94AF5D",
"8. c #8DB256",
"9. c #8BB059",
"0. c #94B552",
"q. c #9AB751",
"w. c #9EB850",
"e. c #97B15C",
"r. c #B9A649",
"t. c #AFBB48",
"y. c #A5A857",
"u. c #A3B754",
"i. c #A3B951",
"p. c #ACB954",
"a. c #A2B25E",
"s. c #ACB55C",
"d. c #ADB55D",
"f. c #AEB65C",
"g. c #AFB858",
"h. c #B3BA57",
"j. c #B5BA57",
"k. c #B1B55D",
"l. c #B6B65D",
"z. c #B8B75D",
"x. c #B6B958",
"c. c #BBBA59",
"v. c #BDB95B",
"b. c #8B8C68",
"n. c #839E6C",
"m. c #BE9663",
"M. c #83A463",
"N. c #83AB61",
"B. c #80AA62",
"V. c #8BAC60",
"C. c #87A16A",
"Z. c #89A16A",
"A. c #8CA269",
"S. c #92A667",
"D. c #92A865",
"F. c #A6AF62",
"G. c #A7AF62",
"H. c #A8AF61",
"J. c #A9B061",
"K. c #C49A53",
"L. c #C3AC4D",
"P. c #CEB84D",
"I. c #D3B74F",
"U. c #D5BC4E",
"Y. c #C4A450",
"T. c #CCA254",
"R. c #CFAA52",
"E. c #D1AC52",
"W. c #CEBB57",
"Q. c #D4B351",
"!. c #BEC341",
"~. c #D3C34B",
"^. c #D9C54C",
"/. c #D6CC49",
"(. c #DACA4B",
"). c #DAD645",
"_. c #D8D446",
"`. c #DED549",
"'. c #DBDF57",
"]. c #E3E345",
"[. c #E6EC44",
"{. c #E8EF43",
"}. c #E9F144",
"|. c #E9E855",
" X c #EBF159",
".X c #D9DA7D",
"XX c #7E8188",
"oX c #B39685",
"OX c #B0B395",
"+X c #A7AAAF",
"@X c #C39E83",
"#X c #C6CA8A",
"$X c #CDD191",
"%X c #E6EB8E",
"&X c #F5F894",
"*X c #DBC6B8",
"=X c #F4F5A0",
"-X c #CACBD1",
";X c #F5F4CF",
":X c #F1EAE1",
">X c #FCFCEC",
",X c #FEFDF9",
/* pixels */
"p.1.1.1.1.i.h.j.j.j.p.1.1.1.1.1.1.1.1.1.1.1.1.1.1.1.1.1.1.1.1.1.1.1.1.p.c.v.v.v.v.v.c.d.d.k.c.c.i.i.i.i.1.1.1.1.1.1.1.1.1.1.1.1.",
"1.1.1.1.1.1.1.1.1.1.1.1.1.1.1.1.1.1.1.1.1.1.1.1.1.1.1.1.1.1.1.1.1.q.q.d.d.d.d.d.d.d.a.B.B.V.d.c.c.c.c.j.i.i.i.i.q.0.0.0.1.1.1.1.",
"0.1.1.1.1.1.1.1.1.1.1.1.1.1.1.1.1.1.1.1.1.1.1.1.1.1.1.1.1.1.1.1.0.8.U B.B.B.5.5.B.B._ _ _ _ V.d.d.d.d.d.d.d.d.d.e.B._ 5.0.0.0.0.",
"5.0.0.0.0.0.0.0.0.0.1.1.1.1.1.1.1.1.1.1.1.1.1.1.1.1.1.1.1.<.0.0.8.U _ _ 5.6.0.0.5._ _ _ _ _ _ _ B.B.B.B.B.B.B.B._ _ _ _ _ _ _ _ ",
"_ _ _ _ _ U 6.6.6.9.1.1.1.1.1.1.1.1.1.1.1.1.1.1.1.1.1.1.1.0.6.6.6.5.5.6.0.<.1.1.0.5.5.U _ _ _ _ _ _ _ _ _ _ _ _ _ _ _ _ _ _ _ _ ",
"5.5.5.5.5.6.0.0.0.<.1.1.1.1.1.1.1.1.1.1.1.1.1.1.1.1.1.1.1.1.0.0.0.0.0.<.1.1.1.1.1.<.0.0.5._ _ _ 5.5.5.U _ _ _ _ _ _ _ _ _ _ _ _ ",
"0.0.0.0.0.<.1.1.1.1.1.1.1.1.1.1.1.1.1.0.8.3.3.3.0.<.1.1.0.8.3.3.3.0.<.1.1.1.1.1.i.i.i.1.0._ _ 6.0.0.0.0.5._ 5.5.U _ _ 5.5.5.5.6.",
"1.1.1.1.1.1.1.1.1.1.1.1.1.1.1.1.1.0.3.4.E ~ ~ ~ W 3.<.0.4.E ~ ~ ~ W 3.<.1.1.1.p.c.c.j.i.0._ 5.0.1.1.1.1.0.9.0.0.0.6.6.0.0.q.q.q.",
"i.i.1.1.1.1.1.1.1.1.1.1.1.1.1.1.0.4.E E Q Q Q ~ ~ W 6.4.R ~ Q Q Q Q Q 3.<.1.p.c.v.W.v.x.w.5.5.0.1.1.1.1.1.1.1.1.1.<.<.1.1.i.i.i.",
"c.h.1.1.1.1.0.8.3.3.3.0.<.0.8.3.4.R ~ Z.k.l.H.n.Q ~ ~ ~ ^ Z.k.l.l.G.n.C.0.i.c.v.v.v.W.v.c.d.6.9.1.1.1.1.1.1.1.1.i.i.i.i.p.c.v.c.",
"c.p.1.1.1.0.4.E ~ ~ ~ W 6.4.E ~ ~ ~ Q d.v.v.v.l.G.n.Q ^ Z.k.v.v.v.v.l.J.D.u.v.v.v.v.v.v.v.c.x.q.1.1.1.1.1.i.i.p.c.c.c.c.v.v.v.v.",
"p.q.8.0.0.4.R ~ Q Q ~ ~ ~ ~ ~ Q Q ~ Q G.v.v.v.v.v.l.H.S.k.v.v.v.v.v.v.v.z.c.v.v.v.v.v.v.v.v.c.i.i.1.1.1.i.x.c.c.v.v.v.v.v.v.v.x.",
"q.4.E W M.R ~ Z.d.G.Q ~ ~ ~ Z.d.G.n.Q C.l.v.v.v.v.v.v.z.v.v.v.v.v.v.v.v.W.W.v.v.v.v.v.v.v.v.v.c.h.1.1.1.i.h.x.x.x.x.x.x.x.j.p.i.",
"3.E ~ Q Q ~ Q k.v.v.H.n.Q A.k.v.v.l.H.S.z.v.v.v.v.v.v.v.v.v.v.v.x.x.x.c.v.W.v.v.c.d.k.c.v.v.W.v.c.i.i.i.1.1.1.1.1.1.1.1.1.1.1.1.",
"4.E Z.d.G.n.A.l.v.v.v.l.l.z.v.v.v.v.v.z.v.v.c.d.d.d.k.v.v.v.v.h.i.w.1.i.j.v.v.z.a.B.V.d.v.v.v.v.v.c.c.j.i.1.1.1.1.1.1.1.1.i.q.0.",
"n.A.k.v.v.l.l.x.x.c.v.v.v.v.v.x.x.x.x.v.v.z.a.B.B.B.V.d.x.x.j.i.1.1.1.1.i.x.d.a.B._ _ V.c.v.v.v.v.v.x.j.p.1.1.1.1.1.1.i.p.x.d.Z.",
"l.z.v.v.v.c.h.i.1.i.j.v.v.v.h.i.q.0.q.d.d.a.B._ _ _ _ 5.q.i.p.1.1.1.0.0.0.8.B._ _ _ _ V.d.x.x.x.j.p.i.1.1.1.1.1.1.i.p.c.c.v.v.l.",
"v.v.v.v.x.p.i.1.1.1.i.c.v.x.i.q.8.U _ B.B._ _ _ _ _ _ 6.0.1.1.1.1.0.8.U _ _ _ _ _ _ _ 5.0.w.1.1.1.1.1.1.1.1.1.1.p.c.c.x.x.c.v.v.",
"v.v.x.p.i.1.1.1.1.1.i.h.x.j.w.0.U _ _ _ _ _ _ _ _ _ U 8.0.0.0.1.0.8.U _ _ _ _ 5.U _ _ _ 5.0.1.1.1.1.1.1.1.1.i.p.c.c.h.i.1.i.j.v.",
"j.p.i.1.1.1.1.1.1.1.1.1.i.p.0.9._ _ _ _ _ _ _ _ _ _ _ _ _ _ 5.8.9.U _ _ _ _ 6.0.0.5.U _ _ 5.0.0.1.1.1.1.1.i.h.h.j.p.i.1.1.1.i.h.",
"1.1.1.1.1.1.1.<.0.0.0.0.0.8.U _ _ _ 5.5.U _ _ _ _ _ _ _ _ _ _ _ _ _ _ _ _ 5.0.1.1.0.0.5.5.5.6.9.1.1.1.1.1.1.1.1.w.1.1.1.1.1.1.1.",
"1.1.1.1.1.1.1.0.6.6.5._ _ _ _ _ _ 6.0.0.0.5._ _ 5.5.U _ _ _ _ _ _ _ 5.U _ 5.0.1.1.1.1.<.0.0.0.<.1.1.1.1.1.1.1.q.0.0.0.1.1.1.1.1.",
"1.1.1.1.1.1.1.1.<.0.0.5.5.U _ _ 5.0.1.1.1.0.U 6.0.0.0.5.U _ _ _ _ 6.0.0.5.5.0.1.1.1.1.1.1.1.1.1.1.1.1.1.1.1.0.8.U _ 5.0.1.1.1.1.",
"1.1.1.1.1.1.1.1.i.i.1.<.0.0.5.5.6.<.1.1.1.0.9.0.1.1.1.0.0.5.5.5.6.0.1.1.0.6.9.<.<.1.1.1.1.1.1.q.0.0.0.1.1.0.8.U _ _ _ 5.<.1.1.1.",
"1.1.1.1.1.1.1.p.c.j.i.1.1.1.q.u.u.i.i.1.1.1.1.1.1.1.1.1.1.0.0.0.q.1.1.1.1.<.<.,.,.<.<.1.1.1.0.8.U _ 5.0.0.8.U _ _ _ _ 5.0.1.1.1.",
"1.1.1.1.1.i.p.c.v.v.j.i.i.i.p.c.c.c.j.i.i.1.1.1.1.1.1.1.q.0.0.0.0.1.1.1.1.1.>.z q S :.<.<.0.8.U _ _ _ _ _ _ _ _ _ _ _ U 8.0.0.1.",
"0.0.0.0.i.c.c.v.v.v.v.v.c.c.v.v.v.c.d.d.u.0.1.q.0.0.0.0.8.U _ _ 5.8.0.1.0.0.-.& 5 : 4 -.0.8.U _ _ _ _ _ _ _ _ _ _ _ _ _ _ _ 5.0.",
"_ U 6.7.p.j.c.v.v.W.v.v.v.v.v.v.z.a.B.B.B.5.8.8.U _ _ _ _ _ _ _ _ _ 5.8.8.U H , !.!.' 0 P _ _ _ _ _ _ _ _ _ _ _ _ _ _ _ _ _ _ _ ",
"5.6.0.q.1.w.i.j.v.v.v.W.v.c.x.d.a.B.5.5.U _ _ _ _ _ _ _ _ _ _ _ ) ) _ _ _ j $ O r.(.]...y T ) _ _ _ _ _ _ _ _ ) ) ) ) _ _ _ _ 5.",
"0.<.1.1.i.i.i.p.v.v.v.v.v.h.q.6.5.6.0.0.0.5.5.5.U _ _ _ _ _ _ ) ) L K K H ; x XXa O.P.$.1 r ` U 5.5.5.5.5.5._ ` ` ` ` ) ) _ 6.0.",
"1.1.i.p.c.c.c.v.v.v.v.v.x.i.1.<.0.<.1.<.0.8.8.8.9._ _ _ _ _ ) L j > & , : o c -X+X1 7 * e h E 4.6.6.6.3.0.0.4.~ ~ ~ ~ ` ( 5.0.1.",
"1.p.c.c.v.v.v.v.v.v.v.v.p.1.1.1.1.1.1.0.6.5._ _ _ _ _ _ _ ) L u + 5 y.$X$Xy.5 c OXO.. e Y ! ~ ~ ~ ~ ~ W 6.4.W Q Q Q ~ ~ R _ 0.1.",
"p.x.x.x.x.x.c.v.v.v.v.x.i.1.1.1.1.1.1.1.0.0.5.U _ _ _ ) ) ) j X 5 | &X,X,X;X'.] % 9 o h ! ! ~ ~ Q Q Q Q ^ E Z.k.l.G.Q ~ ~ W 7.i.",
"h.p.i.1.1.1.i.j.v.v.v.c.i.1.i.i.1.1.1.1.1.1.0.0.5.5.5.I ( K > < !. .=X:X*X;X X~.6 . 6 @.Q ~ ~ Z.k.l.l.H.n.A.k.v.v.v.H.n.Q n.A.l.",
"1.1.1.1.1.1.1.i.j.c.v.v.j.p.x.j.i.1.1.1.1.1.1.1.<.<.X.g u $ % [ { Z b.oX@X;X X].Y.7 6 y.G./ Z.k.v.v.v.v.z.z.v.v.v.v.v.z.l.l.z.c.",
"1.i.i.i.1.1.1.1.1.i.j.v.v.c.j.j.p.i.1.1.1.1.1.1.<.-.4 # 9 w N ..O - < p m.'.}.].R.k % +.d.S.k.v.v.v.v.v.v.v.v.v.v.v.v.v.v.v.v.c.",
"p.c.c.j.i.1.1.1.1.1.i.h.j.p.i.1.i.p.1.1.1.1.1.<.;.4 f #X%X|.Q.p   n P.).P.).{.`.R.#.1 +.v.z.v.v.v.v.v.v.v.v.v.v.v.v.v.v.v.v.v.v.",
"v.v.W.v.h.1.1.1.i.i.1.1.1.1.1.1.1.1.1.1.1.1.1.<.0 5 .X>X>X|.).] o + 7 { ].}.{.U.T.#.1 +.v.v.v.v.v.x.c.v.v.v.v.x.c.v.v.v.v.v.W.v.",
"v.v.v.v.x.1.1.p.c.j.i.i.1.1.1.1.1.1.1.1.1.1.1.:.& ' &X;X&XW.=.t.< 5 2 * r.^.U.T.&.M 1 o.h.v.v.x.p.i.i.j.x.c.h.i.i.j.v.W.v.v.v.v.",
"v.v.v.v.c.i.p.c.v.v.v.j.i.i.i.i.i.i.i.i.i.1.1.;.: r.|. X}./.%.s * { v % $.*.C C C s : X.u.c.h.i.1.1.1.1.i.p.i.1.1.i.v.W.v.v.v.v.",
"x.c.v.v.v.c.c.v.v.v.v.j.h.h.h.h.h.h.h.h.p.1.1.;.: $.].}.{.[.L.B s p @ 5 ).I.%.C s + 0 ,.i.h.i.1.1.1.1.1.1.1.1.1.1.i.c.v.v.v.v.x.",
"1.i.h.x.x.x.x.x.x.j.p.i.w.q.0.0.0.0.0.q.w.1.1.;.: $.`.[.{.].*.=.P.L.' } }.(.&.V i + 0 ,.i.p.1.1.1.1.1.1.1.1.1.1.1.i.h.x.x.j.p.i.",
"1.1.1.1.1.1.1.1.1.1.1.q.0.8.U _ _ _ _ 5.0.0.0.2.3 m Q.`.}.[.~.].{.[.{.{.{.^.&.C C t & -.<.1.1.<.1.1.1.1.1.1.1.1.1.1.1.1.1.1.1.1.",
"1.1.1.1.1.1.1.1.1.q.0.8.U _ _ _ _ _ _ _ 5.9.U ) d 2 K.E.^.`.[.{.}.}.}.[.`.R.%.C V - & -.<.q.0.0.0.1.1.1.1.1.1.1.1.1.1.1.1.1.1.1.",
"1.1.1.1.1.1.1.1.0.8.U _ _ _ _ _ _ _ _ _ _ _ _ ) H # n T.T.R.Q.^.(.(.(.U.R.K.C C s + 8 :.0.8.U _ 5.0.1.1.1.1.1.1.1.1.1.1.1.1.1.1.",
"1.1.1.1.1.1.0.0.8.U _ _ _ 5.5.5.5.U _ _ _ _ _ ( A u % n =.T.T.T.T.T.T.K.&.C M i + @ f G 9.5.5.U _ 5.0.1.1.1.1.1.q.0.0.0.1.1.1.1.",
"0.0.1.1.<.0.8.U _ _ _ _ 6.0.0.0.0.0.5._ _ _ 5.I H j u # < p n #.#.#.N b i t = @ & d j L U 6.0.0.5._ 5.0.1.1.1.0.8.U _ 5.0.1.1.<.",
"_ 5.0.1.0.6.6.5.5.5.5.6.0.1.1.1.1.1.0._ _ 6.0.0.2.H j f y , # = * * = % , 3 d g z S J I 6.0.1.1.0.5.5.9.1.1.q.8.U _ _ _ 5.0.0.8.",
"_ _ 5.0.0.0.0.0.0.0.0.<.1.1.1.1.1.1.0.6.6.0.1.1.<.:.-.G D D z l z z l z S D D F G -.,.0.q.1.q.0.0.8.0.0.1.1.0.U _ _ _ _ _ _ _ _ ",
"_ _ 5.6.6.9.<.1.1.1.1.1.1.1.1.1.1.1.<.0.<.1.1.1.q.0.3.3.3.2.P X.X.X.P P P ;.3.3.U 5.0.0.0.0.8.U _ _ 5.0.1.0.8._ _ _ 5.5.U _ _ _ ",
"5.6.0.0.0.<.1.1.1.0.8.3.3.3.0.<.0.8.3.0.<.1.1.i.e.C.Q E ~ ~ W 3.0.4.E R W 4._ _ ) _ 5.9.U _ _ _ _ _ _ 5.8.8.U _ _ 6.0.0.0.5.5.5.",
"0.<.1.1.1.1.1.1.0.4.E ~ ~ ~ W 6.4.E ~ W 3.w.p.c.c.l.G.n.Q ~ ~ W M.R ~ Q Q E ` ) _ _ _ _ _ _ _ _ _ _ _ _ _ _ _ _ 5.0.1.1.1.<.0.0.",
"1.1.1.1.1.1.0.3.4.W Q Q Q Q ~ ~ E Q Q ~ Q u.c.v.v.v.v.l.G.Q ~ ~ ~ ^ Z.d.G.Q E ) V.B._ _ _ 5.U _ _ 5.5.U _ _ _ _ 6.0.1.1.1.1.1.1.",
"1.1.1.0.8.3.4.W n.A.k.l.l.G.n.Q A.d.G.n.A.l.v.v.v.v.v.v.v.H.Q ~ ~ Z.k.v.c.H.n.A.k.d.V._ 5.0.0.6.6.0.0.0.5._ _ U 8.0.0.0.0.0.0.1.",
"0.0.q.6.W n.n.A.k.z.v.v.v.c.l.l.z.v.v.l.z.v.v.v.c.d.d.k.v.v.H.Q Q k.c.x.x.c.l.z.v.v.d.V.9.q.1.<.<.1.1.1.0._ _ _ _ _ _ _ _ _ 5.0.",
"6.e.a.C.Z.d.l.l.v.v.v.c.d.d.k.c.v.v.v.v.v.v.v.z.a.B.B.V.d.c.v.J.S.l.h.i.i.j.v.v.v.v.c.c.x.i.i.1.1.1.1.1.0._ _ _ _ _ V.V.V.V.V.6.",
"x.x.x.d.d.x.x.c.v.c.d.a.B.B.V.d.k.c.c.d.d.d.d.a.B._ _ _ V.d.d.d.d.p.w.1.1.i.h.x.x.x.c.v.v.c.p.1.1.1.1.q.8.B.V.V.V.7.k.x.x.x.c.x.",
"j.p.i.1.1.1.1.i.h.d.6.5.5.U _ B.V.d.a.B.B.B.B._ _ _ _ _ _ _ B.5.0.0.0.1.1.1.1.1.1.w.i.h.x.p.w.1.1.1.1.0.6.6.d.g.g.x.x.x.x.x.x.x.",
"i.1.1.1.1.1.1.1.1.1.q.0.0.0.5.5.5.5.B._ _ _ _ _ _ _ _ _ _ _ _ _ _ _ 5.0.0.0.1.1.q.0.0.0.0.0.0.1.1.1.1.1.<.q.1.1.1.1.1.1.1.1.1.1.",
"1.i.i.i.i.1.1.1.1.1.1.1.1.1.<.0.0.0.5.5.5.U _ _ _ _ _ _ _ _ _ _ _ _ _ _ _ 5.0.0.8.U _ _ _ _ 6.<.1.1.1.1.1.1.1.1.1.1.1.1.1.1.1.1.",
"p.c.c.c.j.i.1.1.1.1.1.1.1.1.1.1.1.0.0.8.8.9._ _ _ 5.5.U _ _ _ _ _ ) _ _ _ _ _ _ _ _ _ V.V.B.5.0.1.1.1.1.1.1.1.1.1.1.1.1.1.1.1.1.",
"v.v.v.v.v.j.i.i.i.1.1.1.<.0.0.0.0.8.U _ _ _ _ _ 6.0.0.0.5._ _ _ _ _ _ _ 5.5.5.5.5.5.7.k.l.d.e.q.1.1.1.1.1.1.1.1.1.1.1.1.i.i.i.i.",
"v.v.x.x.c.v.c.c.j.i.1.1.0.6.6.6.6.6.5.5.5.5.5.6.0.1.1.1.0._ _ _ _ 5.5.6.0.q.q.q.q.u.x.v.v.v.x.i.1.1.1.1.1.1.1.1.1.1.1.i.h.j.c.c.",
"v.h.i.1.i.c.v.v.v.j.i.1.1.<.0.0.0.0.0.0.0.0.0.<.1.1.1.1.0.5.U U 6.0.0.<.w.i.c.j.i.i.c.v.v.v.v.j.1.1.1.1.1.1.1.1.1.1.1.1.1.i.x.c."
};
